<svg width="6" height="8" viewBox="0 0 6 8" fill="none" xmlns="http://www.w3.org/2000/svg">
<path d="M3.01528 7.89154L5.39594 5.51087C5.5412 5.36562 5.5412 5.13006 5.39594 4.98481C5.25066 4.83952 5.01516 4.83952 4.86988 4.98481L3.12422 6.73046L3.12422 0.372468C3.12422 0.167046 2.95766 0.000488369 2.75224 0.000488376C2.54685 0.000488383 2.38026 0.167046 2.38026 0.372468L2.38026 6.73046L0.634606 4.98486C0.489326 4.83958 0.253818 4.83958 0.108538 4.98486C0.0359568 5.05747 -0.000407711 5.1527 -0.000407711 5.2479C-0.000407712 5.3431 0.0359568 5.43829 0.108538 5.51093L2.48921 7.89154C2.63449 8.03682 2.87 8.03682 3.01528 7.89154Z" fill="#ED2700"/>
</svg>
