<svg width="6" height="8" viewBox="0 0 6 8" fill="none" xmlns="http://www.w3.org/2000/svg">
<path d="M2.77965 0.109435L0.398977 2.4901C0.253726 2.63535 0.253726 2.87092 0.398977 3.01617C0.544257 3.16145 0.779765 3.16145 0.925045 3.01617L2.6707 1.27052L2.6707 7.62851C2.6707 7.83393 2.83726 8.00049 3.04268 8.00049C3.24807 8.00049 3.41466 7.83393 3.41466 7.62851L3.41466 1.27052L5.16032 3.01611C5.3056 3.16139 5.5411 3.16139 5.68638 3.01611C5.75896 2.9435 5.79533 2.84827 5.79533 2.75308C5.79533 2.65788 5.75896 2.56268 5.68638 2.49004L3.30571 0.109435C3.16043 -0.0358459 2.92493 -0.0358459 2.77965 0.109435Z" fill="#2EAD42"/>
</svg>
