<svg width="35" height="35" viewBox="0 0 35 35" fill="none" xmlns="http://www.w3.org/2000/svg">
<path d="M5.81428 31.0987C5.6872 30.9715 5.51084 30.8984 5.33105 30.8984C5.15127 30.8984 4.9749 30.9715 4.84775 31.0987C4.72061 31.2259 4.64746 31.4022 4.64746 31.582C4.64746 31.7618 4.72054 31.9382 4.84775 32.0653C4.9749 32.1924 5.15127 32.2656 5.33105 32.2656C5.51084 32.2656 5.6872 32.1925 5.81428 32.0653C5.94143 31.9382 6.01464 31.7618 6.01464 31.582C6.01464 31.4022 5.9415 31.2259 5.81428 31.0987Z" fill="#81909F"/>
<path d="M32.0946 12.5055C31.9675 12.3783 31.7918 12.3052 31.6113 12.3052C31.4315 12.3052 31.2552 12.3783 31.128 12.5055C31.0009 12.6326 30.9277 12.809 30.9277 12.9888C30.9277 13.1686 31.0009 13.3449 31.128 13.472C31.2552 13.5991 31.4315 13.6724 31.6113 13.6724C31.7918 13.6724 31.9675 13.5992 32.0946 13.472C32.2224 13.3449 32.2955 13.1686 32.2955 12.9888C32.2955 12.809 32.2224 12.6326 32.0946 12.5055Z" fill="#81909F"/>
<path d="M34.7988 0.200224C34.6706 0.0720506 34.4967 0 34.3153 0L17.4993 0.00088867C17.1219 0.00088867 16.8158 0.307001 16.8158 0.684481V2.63935L10.3361 4.37561C9.97143 4.47336 9.755 4.84817 9.85275 5.2128L13.211 17.7459L10.3058 20.6511C9.93608 20.1112 9.31524 19.7562 8.61299 19.7562H2.05071C0.91991 19.7562 0 20.6761 0 21.8069V32.9492C0 34.08 0.91991 34.9999 2.05071 34.9999H8.61306C9.57371 34.9999 10.3819 34.3358 10.6033 33.4427L11.4161 34.1515C12.0436 34.6987 12.8475 35 13.6801 35H34.3154C34.6929 35 34.999 34.6939 34.999 34.3164V0.683592C34.9989 0.502304 34.927 0.328398 34.7988 0.200224ZM9.29651 32.9492C9.29651 33.3261 8.98985 33.6328 8.61292 33.6328H2.05064C1.67371 33.6328 1.36705 33.3262 1.36705 32.9492V21.8069C1.36705 21.43 1.67371 21.1234 2.05064 21.1234H4.64822V28.998C4.64822 29.3755 4.95434 29.6816 5.33182 29.6816C5.70929 29.6816 6.01541 29.3755 6.01541 28.998V21.1234H8.61299C8.98992 21.1234 9.29658 21.43 9.29658 21.8069V32.9492H9.29651ZM11.3502 5.51926L16.8158 4.05473V6.58778L16.3577 6.71055C16.1825 6.75752 16.0333 6.87202 15.9426 7.02904C15.852 7.18606 15.8274 7.37261 15.8743 7.54775C16.137 8.52809 15.5532 9.53933 14.5728 9.80203C14.3975 9.84906 14.248 9.96377 14.1574 10.1211C14.0668 10.2784 14.0424 10.4653 14.0898 10.6406L16.7544 20.5074H15.3824L14.6754 17.7413C14.6529 17.6533 14.6135 17.5722 14.5608 17.5016L11.3502 5.51926ZM16.8158 9.72267V15.4909L15.569 10.8742C16.0899 10.6053 16.5161 10.203 16.8158 9.72267ZM26.6366 33.6328H13.6799C13.1778 33.6328 12.6929 33.4511 12.3145 33.1211L10.6637 31.6814V22.2268L13.6481 19.2424L14.1894 21.3601C14.2668 21.6628 14.5393 21.8744 14.8517 21.8744L28.2914 21.8752C28.8191 21.8752 29.2484 22.3045 29.2484 22.8323C29.2484 23.36 28.8191 23.7893 28.2914 23.7893H21.4049C21.0274 23.7893 20.7213 24.0954 20.7213 24.4729C20.7213 24.8504 21.0274 25.1565 21.4049 25.1565H30.431C30.9587 25.1565 31.388 25.5858 31.388 26.1135C31.388 26.6412 30.9587 27.0705 30.431 27.0705H21.4049C21.0274 27.0705 20.7213 27.3766 20.7213 27.7541C20.7213 28.1316 21.0274 28.4377 21.4049 28.4377H28.9683C29.4961 28.4377 29.9254 28.867 29.9254 29.3948C29.9254 29.9225 29.4961 30.3518 28.9683 30.3518H21.4049C21.0274 30.3518 20.7213 30.6579 20.7213 31.0354C20.7213 31.4129 21.0274 31.719 21.4049 31.719H26.6366C27.1643 31.719 27.5936 32.1483 27.5936 32.676C27.5935 33.2035 27.1643 33.6328 26.6366 33.6328ZM33.6319 33.6328H33.6318H28.7537C28.8863 33.3407 28.9607 33.0168 28.9607 32.6757C28.9607 32.3346 28.8863 32.0108 28.7537 31.7187H28.9683C30.2499 31.7187 31.2925 30.6761 31.2925 29.3945C31.2925 29.0208 31.2033 28.6675 31.0458 28.3543C32.0299 28.084 32.7551 27.182 32.7551 26.1134C32.7551 25.5949 32.5843 25.1157 32.2963 24.7288V16.0649C32.2963 15.6874 31.9902 15.3813 31.6127 15.3813C31.2353 15.3813 30.9291 15.6874 30.9291 16.0649V23.8436C30.7685 23.8084 30.6019 23.7893 30.4309 23.7893H30.4084C30.541 23.4972 30.6154 23.1734 30.6154 22.8323C30.6154 21.5507 29.5728 20.5081 28.2913 20.5081H27.1924C28.3592 20.0077 29.1787 18.8479 29.1787 17.5C29.1787 15.696 27.7112 14.2284 25.9073 14.2284C24.1034 14.2284 22.6358 15.696 22.6358 17.5C22.6358 18.8479 23.4554 20.0077 24.6221 20.5081H20.8854V7.51015C22.1066 7.24403 23.0702 6.28051 23.3362 5.05927H28.4783C28.7443 6.28051 29.7079 7.24403 30.9291 7.51015V9.63544C30.9291 10.0129 31.2352 10.319 31.6127 10.319C31.9901 10.319 32.2963 10.0129 32.2963 9.63544V6.89984C32.2963 6.52236 31.9901 6.21625 31.6127 6.21625C30.5977 6.21625 29.7722 5.39054 29.7722 4.37568C29.7722 3.9982 29.466 3.69208 29.0886 3.69208H22.726C22.3485 3.69208 22.0424 3.9982 22.0424 4.37568C22.0424 5.39061 21.2167 6.21625 20.2019 6.21625C19.8244 6.21625 19.5183 6.52236 19.5183 6.89984V20.508H18.1831V1.36794L33.6319 1.36718V33.6328ZM25.9074 19.4043C24.8573 19.4043 24.0031 18.55 24.0031 17.5C24.0031 16.45 24.8574 15.5957 25.9074 15.5957C26.9574 15.5957 27.8117 16.45 27.8117 17.5C27.8117 18.55 26.9575 19.4043 25.9074 19.4043Z" fill="#81909F"/>
</svg>
