<svg width="28" height="27" viewBox="0 0 28 27" fill="none" xmlns="http://www.w3.org/2000/svg">
<circle cx="13.937" cy="13.2631" r="13.2631" fill="#37CD3F"/>
<path d="M19.4807 16.1896H8.4795C8.37263 16.1896 8.27763 16.1216 8.24301 16.0206L6.59848 11.2241C6.55384 11.0933 6.62337 10.9512 6.75399 10.9063C6.79405 10.8927 6.83582 10.8893 6.87459 10.8962C6.96501 10.9015 7.04928 10.9561 7.08833 11.0448C7.29163 11.5065 8.01482 12.9969 8.85848 12.9969C8.86892 12.9969 8.87951 12.9966 8.89024 12.9961C9.39912 12.9735 10.195 12.3862 11.0967 9.7183C11.1312 9.61673 11.2264 9.54834 11.3335 9.54834C11.4408 9.54834 11.5359 9.61673 11.5704 9.7183C11.8783 10.6281 12.9102 12.9822 13.9818 12.9822C13.9847 12.9822 13.9874 12.982 13.9904 12.982C14.4984 12.9759 15.2795 12.4058 16.116 9.72388C16.1488 9.6193 16.2454 9.54834 16.3548 9.54834H16.3573C16.4677 9.54948 16.5643 9.62273 16.5949 9.72875C16.8505 10.6092 17.7573 12.9152 18.8695 13.0115C19.5193 13.065 20.2398 12.3297 20.9511 10.8771C21.0089 10.7585 21.1494 10.7052 21.2714 10.756C21.3932 10.8065 21.455 10.9429 21.4123 11.068L19.7173 16.0206C19.6825 16.1218 19.5875 16.1896 19.4807 16.1896ZM8.65805 15.6896H19.3018L20.2814 12.8274C19.808 13.3284 19.3273 13.5519 18.826 13.5098C17.5942 13.4027 16.749 11.6277 16.356 10.5843C15.6618 12.522 14.8868 13.4715 13.9961 13.4819C13.9912 13.4819 13.9867 13.4822 13.9818 13.4822C12.737 13.4822 11.776 11.5739 11.3407 10.5212C10.5979 12.4813 9.80071 13.4559 8.91242 13.4957C8.45704 13.5133 8.06046 13.2863 7.71896 12.9497L8.65805 15.6896Z" fill="white"/>
<path d="M19.4806 18.1897H8.47943C8.34123 18.1897 8.22949 18.0778 8.22949 17.9396V15.9394C8.22949 15.8012 8.34123 15.6895 8.47943 15.6895C8.61763 15.6895 8.72951 15.8012 8.72951 15.9394V17.6896H19.2305V15.9394C19.2305 15.8012 19.3424 15.6895 19.4806 15.6895C19.6188 15.6895 19.7305 15.8012 19.7305 15.9394V17.9396C19.7305 18.0778 19.6188 18.1897 19.4806 18.1897Z" fill="white"/>
<path d="M11.4376 10.0481C10.9659 10.0481 10.582 9.66427 10.582 9.19244C10.582 8.72076 10.9659 8.33691 11.4376 8.33691C11.9094 8.33691 12.2932 8.7209 12.2932 9.19259C12.2932 9.66427 11.9094 10.0481 11.4376 10.0481ZM11.4376 8.83707C11.2416 8.83707 11.082 8.99659 11.082 9.19259C11.082 9.38873 11.2416 9.54811 11.4376 9.54811C11.6337 9.54811 11.7931 9.38859 11.7931 9.19259C11.7931 8.99645 11.6337 8.83707 11.4376 8.83707Z" fill="white"/>
<path d="M16.2813 10.0481C15.8096 10.0481 15.4258 9.66427 15.4258 9.19244C15.4258 8.72076 15.8096 8.33691 16.2813 8.33691C16.7531 8.33691 17.137 8.7209 17.137 9.19259C17.137 9.66427 16.7531 10.0481 16.2813 10.0481ZM16.2813 8.83707C16.0853 8.83707 15.9258 8.99659 15.9258 9.19259C15.9258 9.38873 16.0853 9.54811 16.2813 9.54811C16.4775 9.54811 16.637 9.38873 16.637 9.19259C16.637 8.99659 16.4775 8.83707 16.2813 8.83707Z" fill="white"/>
<path d="M21.1262 11.2594C20.6544 11.2594 20.2705 10.8756 20.2705 10.4039C20.2705 9.93218 20.6544 9.54834 21.1262 9.54834C21.5979 9.54834 21.9817 9.93218 21.9817 10.4039C21.9817 10.8756 21.5979 11.2594 21.1262 11.2594ZM21.1262 10.0484C20.93 10.0484 20.7707 10.2077 20.7707 10.4039C20.7707 10.6 20.93 10.7594 21.1262 10.7594C21.3222 10.7594 21.4817 10.6 21.4817 10.4039C21.4817 10.2077 21.3222 10.0484 21.1262 10.0484Z" fill="white"/>
<path d="M6.83502 11.2594C6.36334 11.2594 5.97949 10.8756 5.97949 10.4039C5.97949 9.93218 6.36334 9.54834 6.83502 9.54834C7.30685 9.54834 7.6907 9.93218 7.6907 10.4039C7.6907 10.8756 7.30671 11.2594 6.83502 11.2594ZM6.83502 10.0484C6.63902 10.0484 6.47951 10.2077 6.47951 10.4039C6.47951 10.6 6.63902 10.7594 6.83502 10.7594C7.03117 10.7594 7.19068 10.6 7.19068 10.4039C7.19068 10.2077 7.03117 10.0484 6.83502 10.0484Z" fill="white"/>
</svg>
