<svg width="15" height="15" viewBox="0 0 15 15" fill="none" xmlns="http://www.w3.org/2000/svg">
<path d="M11.861 9.29202C11.5535 8.97227 11.1825 8.80131 10.7894 8.80131C10.3994 8.80131 10.0253 8.9691 9.70512 9.28885L8.70326 10.2861C8.62082 10.2418 8.53839 10.2006 8.45913 10.1595C8.34499 10.1025 8.2372 10.0487 8.14526 9.99167C7.2068 9.39649 6.35395 8.62086 5.53597 7.61728C5.13967 7.11708 4.87335 6.69602 4.67995 6.26863C4.93993 6.03119 5.18088 5.78425 5.4155 5.54681C5.50427 5.45817 5.59304 5.36636 5.68181 5.27771C6.34761 4.61288 6.34761 3.75177 5.68181 3.08694L4.81628 2.22266C4.718 2.12452 4.61654 2.02321 4.52143 1.92191C4.3312 1.72562 4.13146 1.52301 3.92538 1.33306C3.61785 1.02913 3.25008 0.867676 2.86328 0.867676C2.47649 0.867676 2.10237 1.02913 1.78533 1.33306C1.78216 1.33622 1.78216 1.33622 1.77899 1.33939L0.701034 2.42528C0.295216 2.83051 0.0637732 3.32438 0.0130459 3.8974C-0.0630449 4.82183 0.209614 5.68294 0.418864 6.24647C0.932477 7.62995 1.69973 8.91212 2.84426 10.2861C4.23292 11.9418 5.90375 13.2493 7.81236 14.1706C8.54156 14.5157 9.51489 14.9241 10.6024 14.9937C10.6689 14.9969 10.7387 15.0001 10.8021 15.0001C11.5345 15.0001 12.1495 14.7373 12.6314 14.2149C12.6346 14.2086 12.641 14.2054 12.6441 14.1991C12.809 13.9997 12.9992 13.8192 13.199 13.6261C13.3353 13.4963 13.4748 13.3601 13.6111 13.2177C13.925 12.8916 14.0899 12.5117 14.0899 12.1223C14.0899 11.7297 13.9218 11.353 13.6016 11.0364L11.861 9.29202ZM12.996 12.6257C12.9929 12.6257 12.9929 12.6288 12.996 12.6257C12.8724 12.7586 12.7456 12.8789 12.6093 13.0119C12.4032 13.2082 12.1939 13.414 11.9974 13.6451C11.6771 13.987 11.2999 14.1484 10.8053 14.1484C10.7577 14.1484 10.707 14.1484 10.6594 14.1453C9.7178 14.0851 8.84276 13.7179 8.18647 13.4045C6.392 12.537 4.81628 11.3055 3.50688 9.74474C2.42576 8.44357 1.7029 7.24055 1.22416 5.94888C0.929307 5.16058 0.821511 4.5464 0.869068 3.96705C0.900773 3.59664 1.04344 3.28956 1.30659 3.02679L2.38771 1.94723C2.54307 1.8016 2.70793 1.72246 2.86962 1.72246C3.06936 1.72246 3.23106 1.84276 3.33251 1.94407C3.33568 1.94723 3.33885 1.9504 3.34202 1.95356C3.53542 2.13402 3.7193 2.3208 3.9127 2.52025C4.01099 2.62156 4.11244 2.72287 4.2139 2.82734L5.07943 3.69162C5.4155 4.0272 5.4155 4.33745 5.07943 4.67304C4.98749 4.76485 4.89871 4.85665 4.80677 4.9453C4.54045 5.21756 4.28682 5.47083 4.01099 5.71777C4.00465 5.7241 3.9983 5.72727 3.99513 5.7336C3.72248 6.00586 3.7732 6.27179 3.83027 6.45225C3.83344 6.46174 3.83661 6.47124 3.83978 6.48074C4.06488 7.02527 4.38193 7.53814 4.86384 8.14915L4.86701 8.15231C5.74205 9.2287 6.66466 10.0677 7.68237 10.7103C7.81236 10.7926 7.94552 10.8591 8.07234 10.9224C8.18647 10.9794 8.29427 11.0332 8.38621 11.0902C8.39889 11.0966 8.41157 11.1061 8.42426 11.1124C8.53205 11.1662 8.63351 11.1915 8.73813 11.1915C9.00128 11.1915 9.16614 11.0269 9.22004 10.9731L10.3043 9.89037C10.4121 9.78273 10.5833 9.65293 10.7831 9.65293C10.9796 9.65293 11.1413 9.7764 11.2396 9.88404C11.2428 9.8872 11.2428 9.8872 11.246 9.89037L12.9929 11.6348C13.3194 11.9577 13.3194 12.2901 12.996 12.6257Z" fill="#242021"/>
<path d="M8.10719 3.56805C8.93785 3.70735 9.69242 4.09992 10.2948 4.70143C10.8972 5.30294 11.2872 6.05642 11.4298 6.88587C11.4647 7.09482 11.6454 7.24045 11.8515 7.24045C11.8769 7.24045 11.899 7.23728 11.9244 7.23412C12.159 7.19613 12.3144 6.97452 12.2763 6.74024C12.1051 5.73667 11.6296 4.82173 10.9035 4.09675C10.1775 3.37177 9.26123 2.89689 8.2562 2.72594C8.02159 2.68795 7.80283 2.84307 7.76161 3.07418C7.7204 3.30529 7.87258 3.53006 8.10719 3.56805Z" fill="#242021"/>
<path d="M14.9935 6.61682C14.7113 4.96425 13.9314 3.46047 12.733 2.26377C11.5346 1.06708 10.0286 0.288277 8.37361 0.0065158C8.14217 -0.0346403 7.92341 0.123653 7.88219 0.35476C7.84415 0.589033 7.9995 0.807478 8.23411 0.848634C9.71154 1.09874 11.059 1.79839 12.1306 2.86528C13.2022 3.93534 13.8997 5.28083 14.1502 6.75612C14.1851 6.96507 14.3658 7.1107 14.5718 7.1107C14.5972 7.1107 14.6194 7.10753 14.6448 7.10437C14.8762 7.06954 15.0347 6.84793 14.9935 6.61682Z" fill="#242021"/>
</svg>
