<svg width="15" height="16" viewBox="0 0 15 16" fill="none" xmlns="http://www.w3.org/2000/svg">
<path d="M10.7523 15.1189C10.4287 15.1189 10.1664 14.8545 10.1664 14.5283V5.19689H7.64705C7.18482 5.19689 6.77123 4.91832 6.59327 4.48715C6.41462 4.05425 6.51087 3.55999 6.8384 3.22778L9.50719 0.52195C9.83919 0.185364 10.2814 0 10.7523 0C11.2232 0 11.6655 0.185364 11.9974 0.52195L14.6662 3.22778C14.9939 3.55987 15.0901 4.05425 14.9115 4.48715C14.7335 4.91832 14.3198 5.19689 13.8576 5.19689H13.2134C12.8898 5.19689 12.6274 4.93251 12.6274 4.60631C12.6274 4.2801 12.8898 4.01573 13.2134 4.01573H13.7909L11.1664 1.35476C11.0559 1.24287 10.909 1.18116 10.7523 1.18116C10.5958 1.18116 10.4487 1.24287 10.3383 1.35476L7.71377 4.01573H10.1664C10.8126 4.01573 11.3383 4.54564 11.3383 5.19689V14.5283C11.3383 14.8544 11.076 15.1189 10.7523 15.1189Z" fill="#81909F"/>
<path d="M4.24775 15.1189C3.77682 15.1189 3.33462 14.9335 3.00262 14.5969L0.33384 11.8911C0.0061928 11.5589 -0.0900528 11.0646 0.0887054 10.6317C0.266548 10.2006 0.680255 9.92189 1.14249 9.92189H3.66181V0.590582C3.66181 0.264378 3.92411 0 4.24775 0C4.57139 0 4.83369 0.264378 4.83369 0.590582V9.92201C4.83369 10.5733 4.30795 11.1032 3.66181 11.1032H1.20921L3.8337 13.7641C3.94414 13.876 4.0912 13.9377 4.24775 13.9377C4.40431 13.9377 4.55137 13.876 4.6618 13.7641L7.2863 11.1032H6.70882C6.38518 11.1032 6.12288 10.8388 6.12288 10.5126C6.12288 10.1864 6.38518 9.92201 6.70882 9.92201H7.35302C7.81525 9.92201 8.22884 10.2006 8.4068 10.6317C8.58544 11.0646 8.48931 11.559 8.16166 11.8911L5.49288 14.5969C5.16088 14.9335 4.71868 15.1189 4.24775 15.1189Z" fill="#81909F"/>
</svg>
