<svg width="45" height="45" viewBox="0 0 45 45" fill="none" xmlns="http://www.w3.org/2000/svg">
<path d="M41.8958 0H13.9648C13.1417 0 12.3523 0.326969 11.7703 0.908979C11.1883 1.49099 10.8613 2.28036 10.8613 3.10345V21.7241C10.8613 22.5472 11.1883 23.3366 11.7703 23.9186C12.3523 24.5006 13.1417 24.8276 13.9648 24.8276H36.3802C36.6439 24.8271 36.9034 24.8937 37.1342 25.0213C37.365 25.149 37.5594 25.3333 37.6992 25.5569L44.9993 37.2414V3.10345C44.9993 2.28036 44.6723 1.49099 44.0903 0.908979C43.5083 0.326969 42.7189 0 41.8958 0Z" fill="#2488FF"/>
<path d="M36.4648 10.0863C36.4648 8.8517 35.9743 7.66764 35.1013 6.79462C34.2283 5.92161 33.0442 5.43115 31.8096 5.43115H10.8613V7.75874H31.0337C31.8568 7.75874 32.6462 8.08571 33.2282 8.66772C33.8102 9.24973 34.1372 10.0391 34.1372 10.8622V24.8277H36.3802C36.4097 24.8277 36.4361 24.837 36.4648 24.8386V10.0863Z" fill="#006DF0"/>
<path d="M34.1379 10.8622V29.4829C34.1379 30.306 33.811 31.0954 33.229 31.6774C32.6469 32.2594 31.8576 32.5864 31.0345 32.5864H8.61983C8.35644 32.5875 8.09758 32.6549 7.86708 32.7824C7.63658 32.9098 7.44186 33.0932 7.30086 33.3157L0 45.0002V10.8622C0 10.0392 0.326969 9.24978 0.908979 8.66777C1.49099 8.08576 2.28036 7.75879 3.10345 7.75879H31.0345C31.8576 7.75879 32.6469 8.08576 33.229 8.66777C33.811 9.24978 34.1379 10.0392 34.1379 10.8622Z" fill="#FFCD00"/>
<path d="M17.0693 21.7241C17.9263 21.7241 18.621 21.0293 18.621 20.1723C18.621 19.3153 17.9263 18.6206 17.0693 18.6206C16.2123 18.6206 15.5176 19.3153 15.5176 20.1723C15.5176 21.0293 16.2123 21.7241 17.0693 21.7241Z" fill="#ED1C24"/>
<path d="M9.30954 21.7241C10.1665 21.7241 10.8613 21.0293 10.8613 20.1723C10.8613 19.3153 10.1665 18.6206 9.30954 18.6206C8.45254 18.6206 7.75781 19.3153 7.75781 20.1723C7.75781 21.0293 8.45254 21.7241 9.30954 21.7241Z" fill="#ED1C24"/>
<path d="M24.8271 21.7241C25.6841 21.7241 26.3788 21.0293 26.3788 20.1723C26.3788 19.3153 25.6841 18.6206 24.8271 18.6206C23.9701 18.6206 23.2754 19.3153 23.2754 20.1723C23.2754 21.0293 23.9701 21.7241 24.8271 21.7241Z" fill="#ED1C24"/>
</svg>
