<svg width="14" height="13" viewBox="0 0 14 13" fill="none" xmlns="http://www.w3.org/2000/svg">
<path d="M2.0378 12.327H1.0458L1.74727 11.6256C2.12549 11.2473 2.36167 10.7554 2.42517 10.2218C1.43821 9.57407 0.716508 8.72195 0.330179 7.74471C-0.055876 6.76822 -0.10439 5.69328 0.189897 4.63606C0.542998 3.3675 1.37118 2.21125 2.52184 1.38027C3.77224 0.477302 5.32884 0 7.0234 0C9.15808 0 10.9574 0.613311 12.2267 1.77358C13.3702 2.81889 14 4.22886 14 5.74379C14 6.4798 13.8501 7.19594 13.5546 7.87234C13.2487 8.57227 12.8009 9.1955 12.2235 9.72465C10.9524 10.8895 9.15424 11.5052 7.02337 11.5052C6.23233 11.5052 5.40688 11.3996 4.66992 11.2058C3.97235 11.9214 3.02708 12.327 2.0378 12.327ZM7.0234 0.821802C3.62555 0.821802 1.54061 2.84817 0.981593 4.85644C0.45334 6.75425 1.23205 8.54751 3.06467 9.65343L3.26943 9.777L3.26313 10.0161C3.25064 10.4893 3.13784 10.945 2.93592 11.357C3.4276 11.1907 3.87376 10.8891 4.22313 10.4763L4.39686 10.271L4.6545 10.3481C5.37749 10.5643 6.21877 10.6834 7.0234 10.6834C11.2522 10.6834 13.1782 8.12288 13.1782 5.74379C13.1782 4.46244 12.6434 3.26787 11.6722 2.38016C10.5569 1.36068 8.9494 0.821802 7.0234 0.821802Z" fill="#81909F"/>
</svg>
