<svg width="40" height="40" viewBox="0 0 40 40" fill="none" xmlns="http://www.w3.org/2000/svg">
<circle cx="20" cy="20" r="19.5" stroke="#81909F"/>
<path d="M29.1113 23.1125C28.6763 22.5912 28.1848 22.1257 27.7094 21.6755C27.5424 21.5172 27.3696 21.3536 27.2032 21.1911C27.2032 21.1911 27.2031 21.1911 27.2031 21.191C26.9793 20.9727 26.8697 20.8177 26.8582 20.7033C26.847 20.5908 26.9239 20.4239 27.1007 20.1771C27.3651 19.806 27.6469 19.4343 27.9196 19.0749C28.162 18.7553 28.4125 18.4249 28.6527 18.0926L28.7066 18.018C29.1751 17.3695 29.6596 16.6989 29.9192 15.8817C29.9933 15.6474 30.0703 15.3007 29.8846 14.9963C29.6988 14.6918 29.3544 14.6016 29.1117 14.5603C28.9931 14.54 28.8806 14.5383 28.7759 14.5383L25.7366 14.5356C25.2112 14.5268 24.8466 14.7759 24.648 15.2761C24.489 15.6755 24.3012 16.1385 24.0837 16.5776C23.6674 17.4254 23.1386 18.4018 22.372 19.2154L22.3379 19.2516C22.2858 19.3073 22.2005 19.3984 22.1567 19.4193C22.0736 19.3671 21.9778 19.0687 21.9822 18.9123C21.9823 18.9084 21.9824 18.9046 21.9824 18.9008L21.9797 15.3889C21.9797 15.3711 21.9784 15.3532 21.976 15.3355C21.9079 14.8345 21.775 14.3322 20.982 14.1758C20.9566 14.1707 20.9307 14.1682 20.9049 14.1682H17.7433C17.1485 14.1682 16.8339 14.4406 16.5817 14.7359C16.5087 14.822 16.3147 15.0506 16.4135 15.3301C16.5135 15.6128 16.8115 15.6693 16.9093 15.6878C17.2538 15.7532 17.432 15.9479 17.4871 16.3202C17.5962 17.0435 17.6095 17.8173 17.5293 18.7541C17.5069 19.0057 17.4652 19.1968 17.398 19.3558C17.3795 19.3998 17.3631 19.4271 17.3517 19.4432C17.3335 19.4358 17.3052 19.4217 17.266 19.3949C17.0239 19.2292 16.8414 18.9717 16.665 18.7227C15.9602 17.7277 15.3674 16.6287 14.8524 15.3625C14.6403 14.8436 14.2417 14.5538 13.7306 14.5463C12.7568 14.5301 11.8562 14.5305 10.9783 14.5476C10.5642 14.5547 10.2738 14.6851 10.115 14.9351C9.95607 15.1855 9.96189 15.5048 10.1324 15.8842C11.351 18.594 12.4574 20.5653 13.7199 22.276C14.6089 23.4804 15.5037 24.3164 16.5361 24.907C17.6207 25.5275 18.8439 25.8316 20.2629 25.8316C20.4243 25.8316 20.5885 25.8276 20.7549 25.8197C21.6304 25.7798 21.9866 25.4316 22.0254 24.5789C22.0472 24.1282 22.0974 23.7631 22.2714 23.4459C22.3201 23.3572 22.375 23.2976 22.4183 23.2867C22.4643 23.2752 22.5459 23.3034 22.6367 23.3624C22.8026 23.4701 22.9454 23.6162 23.0629 23.7444C23.1819 23.8748 23.3022 24.0094 23.4187 24.1396C23.6665 24.4168 23.9227 24.7035 24.1911 24.977C24.7983 25.5959 25.4982 25.8797 26.2723 25.8203L29.0538 25.8215C29.0538 25.8215 29.0539 25.8215 29.0539 25.8215C29.0627 25.8215 29.0716 25.8213 29.0804 25.8207C29.4012 25.7993 29.6786 25.6217 29.8415 25.3333C30.0376 24.9859 30.0347 24.5459 29.8334 24.1559C29.6234 23.7504 29.3509 23.4014 29.1113 23.1125ZM29.1477 24.9415C29.1093 25.0094 29.062 25.0218 29.0376 25.0248L26.2568 25.0235C26.2567 25.0235 26.2566 25.0235 26.2565 25.0235C26.2455 25.0235 26.2345 25.0239 26.2236 25.0249C25.6758 25.0705 25.2101 24.8779 24.7598 24.4189C24.5044 24.1587 24.2544 23.8791 24.0128 23.6087C23.895 23.477 23.7732 23.3407 23.6509 23.2068C23.4992 23.0411 23.3116 22.8506 23.0706 22.6941C22.7099 22.46 22.4109 22.467 22.2236 22.5142C22.0384 22.5609 21.775 22.6941 21.5729 23.063C21.311 23.5403 21.2532 24.0552 21.2297 24.5417C21.2161 24.8392 21.1658 24.9178 21.1448 24.9377C21.1172 24.9639 21.0252 25.0099 20.7181 25.024C19.2425 25.0933 18.0041 24.8291 16.9318 24.2155C15.9989 23.6818 15.182 22.9151 14.3611 21.8029C13.1335 20.1397 12.0535 18.2136 10.8591 15.5577C10.8158 15.4615 10.8025 15.4015 10.7986 15.3693C10.8291 15.3593 10.8886 15.3461 10.993 15.3442C11.862 15.3274 12.7532 15.3269 13.7182 15.343C13.8503 15.345 14.0007 15.3846 14.1146 15.6633C14.6527 16.9863 15.2742 18.1377 16.0148 19.1834C16.2115 19.4609 16.4562 19.8064 16.816 20.0525C17.1455 20.2781 17.4129 20.2673 17.5792 20.2186C17.7456 20.1698 17.9765 20.0343 18.1321 19.666C18.2324 19.4286 18.2931 19.1613 18.3231 18.8235C18.4089 17.8215 18.3937 16.9883 18.2753 16.2025C18.1918 15.6395 17.9011 15.2328 17.4432 15.0251C17.5245 14.9827 17.6161 14.9651 17.7434 14.9651H20.8636C21.0392 15.0045 21.0739 15.0507 21.0858 15.0665C21.1364 15.1338 21.1653 15.2928 21.1829 15.417L21.1856 18.8965C21.1786 19.2301 21.3407 19.9698 21.8926 20.1727C21.8972 20.1744 21.9017 20.1759 21.9063 20.1774C22.4088 20.3416 22.7412 19.9869 22.9196 19.7963L22.9514 19.7625C23.7911 18.8713 24.3565 17.8299 24.7983 16.9301C25.0285 16.4655 25.2235 15.9849 25.3884 15.5706C25.4709 15.3628 25.546 15.3286 25.7251 15.3324C25.7276 15.3324 25.73 15.3324 25.7325 15.3324L28.7757 15.3351C28.8465 15.3351 28.9204 15.336 28.9777 15.3458C29.1227 15.3704 29.1824 15.4005 29.2021 15.413C29.2041 15.4361 29.2036 15.5025 29.1598 15.6411C28.9391 16.336 28.5125 16.9263 28.0609 17.5514L28.0069 17.6262C27.7723 17.9508 27.5245 18.2775 27.2849 18.5935C27.0087 18.9576 26.7233 19.3341 26.4526 19.714C25.8739 20.5214 25.9248 21.0571 26.6469 21.7615C26.8176 21.9281 26.9925 22.0938 27.1618 22.2541C27.6415 22.7085 28.0946 23.1377 28.4991 23.6223C28.7108 23.8775 28.9508 24.184 29.1257 24.5218C29.217 24.6987 29.1946 24.8585 29.1477 24.9415Z" fill="#81909F"/>
<path d="M12.9052 16.6264C12.8467 16.5106 12.7887 16.3945 12.7313 16.2782C12.6338 16.081 12.395 16 12.1976 16.0975C12.0004 16.1949 11.9194 16.4338 12.0169 16.6311C12.0754 16.7496 12.1345 16.8679 12.1941 16.9858C12.2642 17.1246 12.4045 17.2046 12.55 17.2046C12.6104 17.2046 12.6717 17.1908 12.7293 17.1617C12.9258 17.0624 13.0045 16.8228 12.9052 16.6264Z" fill="#81909F"/>
<path d="M15.4046 20.7595C14.7513 19.8744 14.1401 18.913 13.5362 17.8205C13.4298 17.6279 13.1873 17.5581 12.9948 17.6645C12.8023 17.771 12.7324 18.0134 12.8389 18.2059C13.4598 19.3292 14.0894 20.3193 14.7635 21.2327C14.8416 21.3386 14.9622 21.3945 15.0844 21.3945C15.1666 21.3945 15.2494 21.3692 15.3206 21.3166C15.4976 21.186 15.5352 20.9366 15.4046 20.7595Z" fill="#81909F"/>
</svg>
