<svg width="14" height="10" viewBox="0 0 14 10" fill="none" xmlns="http://www.w3.org/2000/svg">
<path d="M12.0755 3.09893C9.26388 0.287337 4.68953 0.287337 1.87794 3.09893L0 4.97663L1.92453 6.90116C3.3302 8.30683 5.17669 9.00991 7.02341 9.00991C8.87013 9.00991 10.7164 8.30707 12.1223 6.90116L14.0002 5.02322L12.0755 3.09893ZM11.7877 6.56676C9.16054 9.19366 4.88605 9.19366 2.25892 6.56676L0.668784 4.97663L2.21233 3.43308C4.83946 0.806189 9.11395 0.806189 11.7411 3.43308L13.3312 5.02322L11.7877 6.56676Z" fill="#81909F"/>
<path d="M6.75697 3.10107C5.84413 3.10107 5.10156 3.84364 5.10156 4.75648C5.10156 4.88702 5.20751 4.99297 5.33805 4.99297C5.46859 4.99297 5.57454 4.88702 5.57454 4.75648C5.57454 4.10449 6.10497 3.57405 6.75697 3.57405C6.88751 3.57405 6.99345 3.4681 6.99345 3.33756C6.99345 3.20702 6.88775 3.10107 6.75697 3.10107Z" fill="#81909F"/>
<path d="M6.99425 1.91846C5.29911 1.91846 3.91992 3.29765 3.91992 4.99278C3.91992 6.68792 5.29911 8.06711 6.99425 8.06711C8.68938 8.06711 10.0686 6.68792 10.0686 4.99278C10.0686 3.29765 8.68962 1.91846 6.99425 1.91846ZM6.99425 7.59413C5.55996 7.59413 4.3929 6.42707 4.3929 4.99278C4.3929 3.55849 5.55996 2.39143 6.99425 2.39143C8.42854 2.39143 9.5956 3.55849 9.5956 4.99278C9.5956 6.42707 8.42877 7.59413 6.99425 7.59413Z" fill="#81909F"/>
</svg>
