<svg width="24" height="32" viewBox="0 0 24 32" fill="none" xmlns="http://www.w3.org/2000/svg">
<path d="M17.999 2.66589H4.66525C4.29723 2.66589 3.99854 2.96459 3.99854 3.3326C3.99854 3.70062 4.29723 3.99932 4.66525 3.99932H17.999C18.3684 3.99932 18.6658 3.70062 18.6658 3.3326C18.6658 2.96459 18.3671 2.66589 17.999 2.66589Z" fill="#81909F"/>
<path d="M5.60819 3.33249L7.80427 1.13773C8.06428 0.877719 8.06428 0.455016 7.80427 0.195007C7.54426 -0.0650023 7.12155 -0.0650023 6.86155 0.195007L4.19476 2.86179C3.93475 3.1218 3.93475 3.5445 4.19476 3.80451L6.86155 6.47129C6.99224 6.60061 7.16156 6.66599 7.33225 6.66599C7.50294 6.66599 7.67357 6.60067 7.80295 6.46998C8.06296 6.20997 8.06296 5.78727 7.80295 5.52726L5.60819 3.33249Z" fill="#81909F"/>
<path d="M22.4634 8.19535C21.5527 7.28463 20.1193 7.20731 19.122 7.96865C19.006 7.56195 18.7887 7.17794 18.4673 6.85793C17.4739 5.86458 15.8592 5.86458 14.8658 6.85793L5.78821 15.9356L4.94286 10.5514C4.73486 9.09669 3.47081 7.99934 2.00007 7.99934C0.897345 7.99934 0 8.89669 0 9.99941V22.5719C0 24.5306 0.762715 26.372 2.14808 27.7574L4.24546 29.8547C5.6282 31.2388 7.46827 32.0001 9.42434 32.0001C11.2511 32.0001 13.0018 31.3228 14.3538 30.0948L19.8633 25.0813C20.8554 24.0879 20.8554 22.4719 19.8553 21.4718C19.538 21.1545 19.158 20.9385 18.7526 20.8265C19.5166 19.8291 19.4406 18.3904 18.5219 17.4717C18.2112 17.161 17.8392 16.9477 17.4459 16.8317L22.4714 11.8048C23.4635 10.8114 23.4635 9.19538 22.4634 8.19535ZM21.5301 10.8594L13.5298 18.8597C13.4005 18.9904 13.3351 19.161 13.3351 19.3317C13.3351 19.5024 13.3991 19.6731 13.5298 19.8038C13.7898 20.0638 14.2125 20.0638 14.4725 19.8038L15.8633 18.413C16.3366 17.941 17.106 17.9397 17.5873 18.421C18.0606 18.8944 18.0606 19.6638 17.5873 20.1371L16.1966 21.5278C16.1966 21.5291 16.1939 21.5305 16.1926 21.5318C15.9366 21.7931 15.9379 22.2118 16.1966 22.4705C16.4566 22.7306 16.8793 22.7306 17.1393 22.4705L17.1966 22.4132C17.6553 21.9545 18.4473 21.9479 18.9207 22.4212C19.394 22.8946 19.394 23.664 18.9434 24.116L13.4565 29.1082C12.3511 30.1122 10.9191 30.6669 9.42434 30.6669C7.82428 30.6669 6.31891 30.0442 5.18687 28.9121L3.08949 26.8148C1.95613 25.6814 1.33211 24.1747 1.33211 22.5719V9.99941C1.33211 9.6314 1.63081 9.3327 1.99882 9.3327C2.80954 9.3327 3.50688 9.93804 3.62288 10.7501L4.67623 17.433C4.71492 17.681 4.88955 17.885 5.12825 17.9637C5.36557 18.041 5.62826 17.977 5.80558 17.801L15.8099 7.79665C16.2833 7.32463 17.0527 7.32332 17.534 7.80465C18.0073 8.27798 18.0073 9.04738 17.534 9.52071L10.863 16.1916C10.7337 16.3223 10.6683 16.493 10.6683 16.6636C10.6683 16.8343 10.7323 17.005 10.863 17.1357C11.123 17.3957 11.5457 17.3957 11.8057 17.1357L19.806 9.13538C20.2794 8.66205 21.0488 8.66205 21.5301 9.14338C22.0034 9.61671 22.0034 10.3861 21.5301 10.8594Z" fill="#81909F"/>
</svg>
