<svg width="10" height="14" viewBox="0 0 10 14" fill="none" xmlns="http://www.w3.org/2000/svg">
<path d="M5 13.9999C4.99872 13.9999 4.99679 13.9999 4.99488 13.9999C4.89885 13.9986 4.80859 13.9538 4.74905 13.8789C4.74265 13.8712 4.13317 13.1036 3.61909 12.5428C2.36748 11.1759 0 7.87312 0 5.15098C0 2.37567 2.24263 0.117676 5 0.117676C7.75737 0.117676 10 2.37567 10 5.15098C10 8.04982 7.77466 11.1503 6.46031 12.5261C5.90588 13.1055 5.2516 13.8783 5.2452 13.8866C5.1831 13.9583 5.09413 13.9999 5 13.9999ZM5 0.75787C2.59603 0.75787 0.640212 2.72906 0.640212 5.15096C0.640212 7.49283 2.70423 10.5953 4.09092 12.1094C4.41998 12.4679 4.77722 12.8968 5.00706 13.1785C5.2529 12.8949 5.64023 12.4557 5.99682 12.0831C7.24587 10.7771 9.35919 7.84686 9.35919 5.15096C9.35917 2.72907 7.40334 0.75787 5 0.75787ZM5 7.58312C3.65812 7.58312 2.56595 6.48451 2.56595 5.13368C2.56595 3.78284 3.65812 2.68362 5 2.68362C6.34251 2.68362 7.43472 3.78286 7.43472 5.13369C7.43407 6.48451 6.34188 7.58312 5 7.58312ZM5 3.32384C4.01089 3.32384 3.20614 4.13561 3.20614 5.13369C3.20614 6.13178 4.01089 6.9429 5 6.9429C5.98913 6.9429 6.79449 6.13113 6.79449 5.13368C6.79386 4.13561 5.98913 3.32384 5 3.32384Z" fill="#81909F"/>
<path d="M5.00004 6.40885C4.25292 6.40885 3.646 5.80194 3.646 5.05546C3.646 4.30834 4.25355 3.70142 5.00004 3.70142C5.74652 3.70142 6.35343 4.30897 6.35343 5.05546C6.35343 5.80193 5.74652 6.40885 5.00004 6.40885ZM5.00004 4.34161C4.60632 4.34161 4.28621 4.66173 4.28621 5.05544C4.28621 5.44852 4.6063 5.76862 5.00004 5.76862C5.39312 5.76862 5.71324 5.44852 5.71324 5.05544C5.71324 4.66173 5.39312 4.34161 5.00004 4.34161Z" fill="#81909F"/>
</svg>
