<svg width="15" height="16" viewBox="0 0 15 16" fill="none" xmlns="http://www.w3.org/2000/svg">
<path d="M7.36141 8.17735C7.30692 8.12242 7.2316 8.09082 7.15429 8.09082C7.07724 8.09082 7.00166 8.12239 6.94717 8.17735C6.8927 8.23228 6.86133 8.30847 6.86133 8.38614C6.86133 8.46381 6.89267 8.54 6.94717 8.5949C7.00166 8.64983 7.07724 8.68146 7.15429 8.68146C7.23134 8.68146 7.30692 8.64986 7.36141 8.5949C7.41587 8.54 7.44725 8.46381 7.44725 8.38614C7.44725 8.30847 7.4159 8.23228 7.36141 8.17735Z" fill="#81909F"/>
<path d="M13.886 6.43739H13.1797C12.7635 5.56473 11.8778 4.96094 10.8547 4.96094C9.8316 4.96094 8.94587 5.56476 8.52966 6.43739H1.11322C0.499379 6.43739 0 6.94078 0 7.55948C0 8.17821 0.499408 8.68157 1.11322 8.68157H5.81027C5.97204 8.68157 6.10323 8.54934 6.10323 8.38628C6.10323 8.22321 5.97204 8.09098 5.81027 8.09098H1.11322C0.822455 8.09098 0.58589 7.85253 0.58589 7.55945C0.58589 7.26637 0.822455 7.02792 1.11322 7.02792H8.33098C8.29544 7.19957 8.27666 7.37734 8.27666 7.55945C8.27666 8.99228 9.43315 10.158 10.8547 10.158C11.8777 10.158 12.7635 9.5542 13.1797 8.68157H13.886C14.4999 8.68157 14.9993 8.17818 14.9993 7.55948C14.9993 6.94075 14.4999 6.43739 13.886 6.43739ZM10.8547 9.56746C9.75626 9.56746 8.86258 8.66666 8.86258 7.55948C8.86258 6.4523 9.75626 5.5515 10.8547 5.5515C11.9531 5.5515 12.8468 6.4523 12.8468 7.55948C12.8468 8.66666 11.9531 9.56746 10.8547 9.56746ZM13.886 8.09101H13.3784C13.4139 7.91936 13.4327 7.74159 13.4327 7.55948C13.4327 7.37737 13.4139 7.19957 13.3784 7.02795H13.886C14.1768 7.02795 14.4134 7.2664 14.4134 7.55948C14.4134 7.85256 14.1768 8.09101 13.886 8.09101Z" fill="#81909F"/>
<path d="M13.886 11.4018H7.1962C6.7807 10.5273 5.89399 9.92188 4.86957 9.92188C3.84518 9.92188 2.95845 10.5273 2.54295 11.4018H1.11322C0.499379 11.4018 0 11.9051 0 12.5238C0 13.1425 0.499408 13.6459 1.11322 13.6459H2.54614C2.96302 14.5167 3.84782 15.1189 4.86954 15.1189C5.89124 15.1189 6.77607 14.5167 7.19295 13.6459H13.886C14.4999 13.6459 14.9992 13.1425 14.9992 12.5239C14.9992 11.9051 14.4999 11.4018 13.886 11.4018ZM1.11322 13.0553C0.822455 13.0553 0.58589 12.8169 0.58589 12.5238C0.58589 12.2308 0.822455 11.9923 1.11322 11.9923H2.34511C2.31004 12.1629 2.29156 12.3395 2.29156 12.5204C2.29156 12.7037 2.3106 12.8826 2.34661 13.0553H1.11322ZM4.86957 14.5283C3.77115 14.5283 2.87748 13.6275 2.87748 12.5204C2.87748 11.4132 3.77115 10.5124 4.86957 10.5124C5.968 10.5124 6.86167 11.4132 6.86167 12.5204C6.86167 13.6276 5.968 14.5283 4.86957 14.5283ZM13.886 13.0553H7.39251C7.42852 12.8826 7.44756 12.7037 7.44756 12.5204C7.44756 12.3395 7.42907 12.1629 7.39401 11.9923H13.886C14.1768 11.9923 14.4134 12.2308 14.4134 12.5238C14.4133 12.8169 14.1768 13.0553 13.886 13.0553Z" fill="#81909F"/>
<path d="M10.4312 1.56294C10.3767 1.50811 10.3012 1.47656 10.2241 1.47656C10.1471 1.47656 10.0715 1.50808 10.017 1.56294C9.9625 1.6178 9.93115 1.69383 9.93115 1.77136C9.93115 1.84889 9.96247 1.92495 10.017 1.97976C10.0715 2.03462 10.1471 2.06616 10.2241 2.06616C10.3012 2.06616 10.3767 2.03462 10.4312 1.97976C10.4857 1.92495 10.5171 1.84889 10.5171 1.77136C10.5171 1.69383 10.4857 1.61777 10.4312 1.56294Z" fill="#81909F"/>
<path d="M13.8865 1.47643H11.2938C11.1321 1.47643 11.0009 1.60866 11.0009 1.77172C11.0009 1.93478 11.1321 2.06701 11.2938 2.06701H13.8865C14.1773 2.06701 14.4138 2.30546 14.4138 2.59854C14.4138 2.89162 14.1773 3.13007 13.8865 3.13007H7.39376C7.4293 2.95841 7.44808 2.78065 7.44808 2.59854C7.44808 2.41643 7.4293 2.23864 7.39376 2.06701H8.9942C9.15597 2.06701 9.28716 1.93478 9.28716 1.77172C9.28716 1.60866 9.15597 1.47643 8.9942 1.47643H7.19508C6.77887 0.603813 5.89311 0 4.87006 0C3.84702 0 2.96125 0.603813 2.54505 1.47643H1.11371C0.499867 1.47643 0.000488281 1.97982 0.000488281 2.59851C0.000488281 3.21724 0.499896 3.72059 1.11371 3.72059H2.54502C2.96123 4.59324 3.84696 5.19702 4.87003 5.19702C5.89311 5.19702 6.77884 4.59321 7.19505 3.72059H13.8865C14.5003 3.72059 14.9997 3.21721 14.9997 2.59851C14.9997 1.97982 14.5003 1.47643 13.8865 1.47643ZM2.34633 3.13004H1.11371C0.822943 3.13004 0.586378 2.89159 0.586378 2.59851C0.586378 2.30543 0.822943 2.06699 1.11371 2.06699H2.34633C2.3108 2.23864 2.29202 2.4164 2.29202 2.59851C2.29202 2.78065 2.3108 2.95841 2.34633 3.13004ZM4.87006 4.6065C3.77164 4.6065 2.87797 3.70571 2.87797 2.59854C2.87797 1.49134 3.77158 0.590584 4.87006 0.590584C5.96848 0.590584 6.86216 1.49137 6.86216 2.59854C6.86216 3.70571 5.96848 4.6065 4.87006 4.6065Z" fill="#81909F"/>
</svg>
