<svg width="14" height="11" viewBox="0 0 14 11" fill="none" xmlns="http://www.w3.org/2000/svg">
<path d="M2.41851 10.6018H1.52262L2.15612 10.0114C2.4977 9.69312 2.71101 9.27912 2.76836 8.83001C1.87701 8.28493 1.22522 7.56779 0.876318 6.74537C0.527662 5.92357 0.483848 5.01891 0.749626 4.12917C1.06852 3.06157 1.81647 2.08849 2.85566 1.38915C3.98493 0.629229 5.39074 0.227539 6.92113 0.227539C8.84902 0.227539 10.474 0.743692 11.6204 1.72016C12.6531 2.59987 13.2219 3.78648 13.2219 5.06142C13.2219 5.68083 13.0865 6.28353 12.8196 6.85278C12.5434 7.44182 12.1389 7.96632 11.6174 8.41165C10.4695 9.39197 8.84555 9.91015 6.9211 9.91015C6.2067 9.91015 5.46122 9.82128 4.79565 9.6582C4.16565 10.2604 3.31196 10.6018 2.41851 10.6018ZM6.92113 0.919154C3.85245 0.919154 1.96949 2.62452 1.46463 4.31464C0.987547 5.91181 1.69082 7.42098 3.3459 8.35171L3.53083 8.45571L3.52514 8.6569C3.51386 9.05513 3.41198 9.4387 3.22963 9.78543C3.67368 9.64543 4.07661 9.3916 4.39214 9.04423L4.54904 8.87149L4.78172 8.93634C5.43467 9.11832 6.19445 9.21854 6.92113 9.21854C10.7402 9.21854 12.4797 7.06363 12.4797 5.06142C12.4797 3.98306 11.9967 2.97772 11.1196 2.23064C10.1124 1.37267 8.66055 0.919154 6.92113 0.919154Z" fill="white"/>
</svg>
