<svg width="14" height="8" viewBox="0 0 14 8" fill="none" xmlns="http://www.w3.org/2000/svg">
<path d="M11.8808 2.36058C9.34154 -0.00560957 5.21033 -0.00560957 2.67111 2.36058L0.975098 3.94082L2.71319 5.56048C3.98269 6.74347 5.65029 7.33517 7.31811 7.33517C8.98594 7.33517 10.6533 6.74367 11.923 5.56048L13.6191 3.98003L11.8808 2.36058ZM11.6208 5.27906C9.24821 7.48981 5.38781 7.48981 3.01518 5.27906L1.57909 3.94082L2.97311 2.6418C5.34573 0.431048 9.20613 0.431048 11.5788 2.6418L13.0148 3.98003L11.6208 5.27906Z" fill="white"/>
<path d="M7.07731 2.3623C6.25291 2.3623 5.58228 2.98724 5.58228 3.75547C5.58228 3.86533 5.67796 3.95449 5.79585 3.95449C5.91375 3.95449 6.00943 3.86533 6.00943 3.75547C6.00943 3.20676 6.48848 2.76035 7.07731 2.76035C7.19521 2.76035 7.29089 2.67119 7.29089 2.56133C7.29089 2.45147 7.19542 2.3623 7.07731 2.3623Z" fill="white"/>
<path d="M7.2909 1.36719C5.75998 1.36719 4.5144 2.52789 4.5144 3.95449C4.5144 5.38109 5.75998 6.54179 7.2909 6.54179C8.82182 6.54179 10.0674 5.38109 10.0674 3.95449C10.0674 2.52789 8.82204 1.36719 7.2909 1.36719ZM7.2909 6.14375C5.99556 6.14375 4.94156 5.16157 4.94156 3.95449C4.94156 2.74741 5.99556 1.76523 7.2909 1.76523C8.58625 1.76523 9.64025 2.74741 9.64025 3.95449C9.64025 5.16157 8.58646 6.14375 7.2909 6.14375Z" fill="white"/>
</svg>
