<svg width="36" height="38" viewBox="0 0 36 38" fill="none" xmlns="http://www.w3.org/2000/svg">
<path d="M7.4178e-05 2.80725V23.0573C7.4178e-05 23.3648 0.249227 23.614 0.556715 23.614C0.864203 23.614 1.11336 23.3648 1.11336 23.0573V3.36248H5.4055L5.94811 4.55636C6.28091 5.28853 7.01568 5.7616 7.81998 5.7616H14.2859C15.0902 5.7616 15.8248 5.28853 16.1577 4.55636L16.7004 3.36248H20.9929V5.96221C20.9929 6.2697 21.2421 6.51886 21.5496 6.51886C21.8571 6.51886 22.1062 6.2697 22.1062 5.96221V0.556641C22.1062 0.249152 21.8571 0 21.5496 0H0.556715C0.249227 0 7.4178e-05 0.249152 7.4178e-05 0.556641V2.80436C7.4178e-05 2.8048 0 2.80532 0 2.80577C0 2.80621 7.4178e-05 2.8068 7.4178e-05 2.80725ZM20.9928 1.11328V2.2492H16.3419C16.1237 2.2492 15.9256 2.37678 15.8352 2.57546L15.1441 4.09561C14.9915 4.4313 14.6546 4.64825 14.2859 4.64825H7.81998C7.45119 4.64825 7.11424 4.4313 6.96172 4.09561L6.27074 2.57546C6.18034 2.37671 5.98225 2.2492 5.76398 2.2492H1.11336V1.11328H20.9928Z" fill="#81909F"/>
<path d="M8.95386 3.40567C9.36794 3.40567 9.70362 3.07 9.70362 2.65592C9.70362 2.24184 9.36794 1.90616 8.95386 1.90616C8.53978 1.90616 8.2041 2.24184 8.2041 2.65592C8.2041 3.07 8.53978 3.40567 8.95386 3.40567Z" fill="#81909F"/>
<path d="M10.978 3.21249H13.9019C14.2094 3.21249 14.4586 2.96333 14.4586 2.65585C14.4586 2.34836 14.2094 2.09921 13.9019 2.09921H10.978C10.6705 2.09921 10.4214 2.34836 10.4214 2.65585C10.4214 2.96333 10.6705 3.21249 10.978 3.21249Z" fill="#81909F"/>
<path d="M35.8612 25.0761C35.8509 24.9289 35.7825 24.7917 35.6711 24.6949L33.351 22.6787L32.2306 20.9943C31.8311 20.3937 31.3524 19.8491 30.8078 19.3758L28.6709 17.5187C28.4388 17.317 28.0873 17.3416 27.8855 17.5737C27.6839 17.8057 27.7085 18.1573 27.9405 18.359L30.0775 20.216C30.5468 20.624 30.9594 21.0932 31.3037 21.6109L32.4657 23.3578C32.4933 23.3993 32.5264 23.4369 32.564 23.4697L34.5206 25.17L26.9723 33.8556L24.4498 31.6634C24.36 31.5853 24.2475 31.5381 24.129 31.5287C24.129 31.5287 16.6271 30.937 16.5996 30.9339C16.2707 30.8967 15.9743 30.8533 15.7338 30.6443C15.4933 30.4353 15.3486 30.1452 15.3263 29.8273C15.3041 29.5095 15.4069 29.202 15.6158 28.9616C15.8248 28.7211 16.115 28.5764 16.4329 28.5541L18.7069 28.3948C18.9314 28.3791 19.1245 28.2296 19.1959 28.0161C19.2673 27.8026 19.2031 27.5671 19.0332 27.4194L10.3561 19.8784C10.1207 19.6738 9.97901 19.3898 9.95726 19.0787C9.93544 18.7675 10.0362 18.4665 10.2407 18.2311C10.4453 17.9956 10.7294 17.854 11.0405 17.8322C11.3519 17.8107 11.6526 17.9111 11.8881 18.1156L18.9617 24.2631C19.0671 24.3547 19.1971 24.3996 19.3266 24.3996C19.4822 24.3996 19.6369 24.3348 19.747 24.2082C19.9487 23.9761 19.924 23.6246 19.692 23.4228L16.5796 20.7179L16.5791 20.7176C16.0936 20.2952 16.0419 19.5563 16.4642 19.0706C16.8865 18.5847 17.6256 18.5329 18.1115 18.9552L21.224 21.6601C21.3294 21.7517 21.4594 21.7966 21.5889 21.7966C21.7445 21.7966 21.8992 21.7317 22.0093 21.6051C22.2109 21.373 22.1863 21.0215 21.9543 20.8198L19.9736 19.0985C19.4875 18.6762 19.4358 17.9372 19.8582 17.4511C20.2805 16.9651 21.0195 16.9134 21.5056 17.3357L23.4862 19.057C23.5915 19.1486 23.7216 19.1935 23.8511 19.1935C24.0066 19.1935 24.1614 19.1286 24.2715 19.002C24.4731 18.7699 24.4485 18.4184 24.2165 18.2167L23.3811 17.4907C22.8951 17.0684 22.8433 16.3293 23.2656 15.8433C23.6879 15.3573 24.427 15.3056 24.913 15.7279L25.966 16.6431C26.198 16.8448 26.5496 16.8201 26.7513 16.5881C26.953 16.356 26.9283 16.0045 26.6963 15.8028L25.6434 14.8875C24.694 14.0624 23.2504 14.1636 22.4254 15.1129C22.2958 15.2621 22.1904 15.4239 22.1061 15.5932V8.57227C22.1061 8.26478 21.857 8.01562 21.5495 8.01562C21.242 8.01562 20.9928 8.26478 20.9928 8.57227V15.9514C20.2734 15.8721 19.5276 16.1343 19.018 16.7207C18.733 17.0487 18.5513 17.4418 18.4858 17.8606C17.5594 17.3257 16.3512 17.5033 15.6239 18.3402C15.3441 18.6621 15.1708 19.0408 15.1011 19.433L12.6184 17.2753C11.6692 16.4504 10.2256 16.5514 9.4004 17.5008C8.57538 18.45 8.67647 19.8936 9.6258 20.7187L17.2885 27.3782L16.3551 27.4436C15.7406 27.4866 15.1796 27.7664 14.7756 28.2313C14.3716 28.6962 14.1727 29.2907 14.2158 29.9051C14.2588 30.5196 14.5386 31.0806 15.0035 31.4846C15.4572 31.879 15.9893 32.0007 16.6329 32.0471L20.9928 32.3952V34.6376H1.11336V25.6519C1.11336 25.3444 0.864203 25.0953 0.556715 25.0953C0.249227 25.0953 7.4178e-05 25.3444 7.4178e-05 25.6519V35.1928C7.4178e-05 35.1933 0 35.1938 0 35.1942C0 35.1947 7.4178e-05 35.1952 7.4178e-05 35.1956V37.4434C7.4178e-05 37.7508 0.249227 38 0.556715 38H21.5495C21.857 38 22.1061 37.7508 22.1061 37.4434V32.4841L23.8578 32.6239L26.6622 35.0611C26.7676 35.1527 26.8976 35.1976 27.0271 35.1976C27.1827 35.1976 27.3374 35.1327 27.4475 35.0061L35.7262 25.4802C35.8229 25.3688 35.8716 25.2235 35.8612 25.0761ZM1.11336 36.8867V35.7508H20.9928V36.8867H1.11336Z" fill="#81909F"/>
<path d="M11.0529 24.2913C10.7454 24.2913 10.4962 24.5404 10.4962 24.8479V28.6838L9.36061 27.467C9.15094 27.2424 8.7987 27.2302 8.57382 27.4399C8.34908 27.6497 8.33691 28.0018 8.54665 28.2267L10.6459 30.4759C10.8654 30.711 11.2512 30.7077 11.4666 30.4684L13.4908 28.2192C13.6965 27.9907 13.6779 27.6388 13.4495 27.4331C13.2211 27.2274 12.8691 27.2459 12.6633 27.4744L11.6094 28.6455V24.8479C11.6095 24.5404 11.3604 24.2913 11.0529 24.2913Z" fill="#81909F"/>
</svg>
