<svg width="12" height="15" viewBox="0 0 12 15" fill="none" xmlns="http://www.w3.org/2000/svg">
<path d="M7.60189 1.86858C5.95195 1.03485 3.96442 1.35363 2.65628 2.66179C1.13591 4.18213 0.983745 6.60633 2.30234 8.30069C2.34895 8.36057 2.41862 8.39192 2.48905 8.39192C2.53979 8.39192 2.59092 8.37566 2.63407 8.34206C2.73711 8.26187 2.75562 8.11336 2.67547 8.01033C1.50303 6.50382 1.63853 4.34815 2.99061 2.99607C4.154 1.83263 5.92142 1.5491 7.38873 2.29051C7.50521 2.34946 7.64742 2.30264 7.70631 2.18613C7.76516 2.06961 7.71846 1.92744 7.60189 1.86858Z" fill="#2FAA33"/>
<path d="M9.48863 3.75681C9.42974 3.6403 9.28763 3.59354 9.17102 3.65237C9.05451 3.71123 9.00772 3.85338 9.06658 3.96995C9.80747 5.43702 9.52379 7.20421 8.36067 8.3673C7.00856 9.71935 4.85292 9.85482 3.34641 8.68244C3.24335 8.60229 3.09487 8.6208 3.01468 8.72381C2.9345 8.82685 2.95304 8.97535 3.05608 9.05554C3.82788 9.65618 4.75106 9.95161 5.6713 9.95161C6.77131 9.95161 7.86716 9.52942 8.69501 8.70157C10.0029 7.39376 10.3218 5.40661 9.48863 3.75681Z" fill="#2FAA33"/>
<path d="M8.87577 2.85654C8.8172 2.79027 8.75568 2.72482 8.6929 2.66206C8.63011 2.59928 8.56469 2.53776 8.49842 2.47919C8.4006 2.39271 8.25119 2.40197 8.16479 2.49979C8.07828 2.59758 8.08747 2.74697 8.1853 2.83342C8.24433 2.88557 8.30263 2.94042 8.35859 2.99634C8.41449 3.0523 8.46933 3.11057 8.52151 3.16961C8.56821 3.22246 8.63331 3.24944 8.69873 3.24944C8.75436 3.24944 8.8102 3.2299 8.85517 3.19017C8.95302 3.10375 8.96222 2.95436 8.87577 2.85654Z" fill="#2FAA33"/>
<path d="M11.2549 6.10578C11.4126 5.84717 11.4126 5.52596 11.2549 5.26742L10.9439 4.75744C10.9029 4.69024 10.8871 4.61043 10.8993 4.53274L10.992 3.94378C11.0393 3.64363 10.916 3.34618 10.6703 3.16744L10.1883 2.81687C10.1246 2.7705 10.0793 2.70285 10.0608 2.62627L9.9204 2.04622C9.84915 1.75158 9.62184 1.52429 9.32723 1.45298L8.74715 1.31259C8.67057 1.29405 8.60286 1.24876 8.55654 1.18504L8.20592 0.702954C8.02721 0.45727 7.72973 0.333901 7.42967 0.381186L6.84051 0.473881C6.76281 0.486098 6.68298 0.470278 6.61583 0.429321L6.10577 0.118246C5.84719 -0.03943 5.52598 -0.0394007 5.26741 0.118246L4.75741 0.429233C4.69026 0.470219 4.61048 0.485981 4.5327 0.473794L3.94371 0.381098C3.64365 0.333871 3.34614 0.457182 3.16743 0.702866L2.81687 1.18483C2.77049 1.24855 2.70281 1.29384 2.6262 1.31239L2.04615 1.45275C1.75157 1.524 1.52423 1.75132 1.45292 2.04593L1.31253 2.626C1.29398 2.70259 1.24872 2.77029 1.18497 2.81661L0.702888 3.16724C0.457204 3.34592 0.333923 3.64334 0.38112 3.94349L0.473816 4.53268C0.486032 4.6104 0.470212 4.69021 0.429255 4.75736L0.118209 5.26744C-0.039408 5.52602 -0.039408 5.84723 0.118239 6.10578L0.429226 6.61578C0.470183 6.68298 0.486032 6.76279 0.473786 6.84048L0.381091 7.42947C0.333835 7.72959 0.457146 8.02707 0.70283 8.20578L1.18479 8.55635C1.24851 8.60266 1.29381 8.67037 1.31235 8.74695L1.45271 9.327C1.52396 9.62164 1.75128 9.84893 2.04589 9.92023L2.28812 9.97886L0.648835 13.6355C0.614001 13.7132 0.62364 13.8037 0.674118 13.8723C0.724568 13.9409 0.807976 13.9771 0.892586 13.9669L2.21159 13.8092L2.97144 14.8988C3.01591 14.9625 3.08848 15 3.16526 15C3.17262 15 3.18006 14.9996 3.18744 14.9989C3.27223 14.991 3.3462 14.938 3.38104 14.8603L5.05521 11.1256L5.26735 11.2549C5.39664 11.3338 5.54157 11.3732 5.68653 11.3732C5.83149 11.3732 5.97642 11.3337 6.10571 11.2549L6.3255 11.1209L8.00178 14.8603C8.03661 14.938 8.11056 14.991 8.19537 14.9989C8.20278 14.9996 8.2102 15 8.21755 15C8.29434 15 8.36693 14.9626 8.41138 14.8988L9.17122 13.8093L10.4902 13.967C10.5748 13.977 10.6582 13.9409 10.7087 13.8723C10.7591 13.8037 10.7688 13.7133 10.734 13.6356L9.09385 9.97687L9.32696 9.92047C9.62154 9.84922 9.84889 9.62191 9.9202 9.3273L10.0606 8.74722C10.0791 8.67063 10.1244 8.60293 10.1881 8.55661L10.6702 8.20598C10.9159 8.0273 11.0392 7.72988 10.992 7.42973L10.8993 6.84054C10.8871 6.76282 10.9029 6.68301 10.9439 6.61586L11.2549 6.10578ZM3.12041 14.286L2.51824 13.4225C2.46832 13.3509 2.38295 13.3126 2.29629 13.323L1.251 13.448L2.74453 10.1162C2.77184 10.1363 2.79633 10.1604 2.81651 10.1882L3.16714 10.6702C3.20045 10.716 3.23789 10.7575 3.2787 10.7945L2.49258 12.5481C2.4392 12.6673 2.49246 12.8071 2.61158 12.8605C2.64299 12.8746 2.67583 12.8813 2.70812 12.8813C2.79841 12.8813 2.88466 12.8292 2.92395 12.7415L3.70729 10.9941C3.78437 11.0047 3.86373 11.0045 3.94339 10.992L4.53255 10.8993C4.56783 10.8938 4.60348 10.8943 4.6382 10.9L3.12041 14.286ZM10.1319 13.4479L9.08655 13.323C8.99981 13.3126 8.91452 13.3509 8.8646 13.4225L8.26243 14.286L6.744 10.8987C6.77585 10.8944 6.80834 10.8944 6.84048 10.8994L7.42943 10.9921C7.51231 11.0051 7.5949 11.0047 7.67491 10.9928L8.45884 12.7416C8.49818 12.8293 8.58438 12.8813 8.67467 12.8813C8.70698 12.8813 8.73982 12.8747 8.7712 12.8606C8.89032 12.8072 8.94361 12.6673 8.89021 12.5482L8.10109 10.7879C8.13915 10.7526 8.17434 10.7135 8.20571 10.6703L8.55628 10.1884C8.57837 10.158 8.60544 10.1319 8.63585 10.1109L10.1319 13.4479ZM10.8513 5.85962L10.5402 6.36971C10.441 6.53243 10.4027 6.72573 10.4323 6.91399L10.525 7.50315C10.5445 7.62705 10.4935 7.74983 10.3921 7.8236L9.91003 8.17426C9.75572 8.28652 9.64598 8.4505 9.6011 8.63597L9.4607 9.21605C9.43126 9.33767 9.33745 9.4315 9.21581 9.46095L8.63573 9.60131C8.45022 9.64619 8.28622 9.75594 8.17395 9.91027L7.82339 10.3922C7.74962 10.4937 7.62686 10.5446 7.50291 10.525L6.91392 10.4323C6.72563 10.4027 6.5323 10.441 6.36956 10.5403L5.85959 10.8513C5.75286 10.9163 5.6202 10.9163 5.51353 10.8513L5.00344 10.5402C4.87659 10.4629 4.73116 10.4226 4.584 10.4226C4.5424 10.4226 4.50059 10.4258 4.45913 10.4323L3.86994 10.525C3.74602 10.5445 3.62326 10.4936 3.54949 10.3922L3.19884 9.9101C3.08657 9.75579 2.9226 9.64605 2.73712 9.60116L2.15704 9.46077C2.03543 9.43133 1.94159 9.33752 1.91215 9.21588L1.77179 8.63583C1.7269 8.45032 1.61719 8.28629 1.46282 8.17402L0.980887 7.82343C0.879461 7.74966 0.828572 7.62684 0.848084 7.50295L0.940779 6.91396C0.970398 6.72567 0.932078 6.53237 0.832849 6.36962L0.521862 5.85959C0.456794 5.75287 0.456794 5.62024 0.521862 5.51354L0.832908 5.00345C0.932107 4.84073 0.970457 4.64743 0.940838 4.45917L0.848142 3.87001C0.82866 3.74611 0.879578 3.62333 0.980975 3.54956L1.46308 3.19891C1.61739 3.08664 1.72714 2.92266 1.77202 2.73719L1.91241 2.15711C1.94185 2.0355 2.03566 1.94166 2.1573 1.91221L2.73738 1.77185C2.92289 1.72697 3.0869 1.61722 3.19913 1.46289L3.5497 0.980923C3.62347 0.879497 3.74622 0.82855 3.87018 0.848091L4.45916 0.940787C4.64748 0.970464 4.84081 0.932085 5.00353 0.832857L5.5135 0.52187C5.62023 0.456831 5.75289 0.456831 5.85956 0.52187L6.36965 0.832886C6.53236 0.932144 6.72572 0.970494 6.91395 0.940845L7.50314 0.84815C7.62701 0.828726 7.74982 0.879585 7.82359 0.980982L8.17425 1.46306C8.28651 1.61737 8.45049 1.72712 8.63597 1.772L9.21605 1.91239C9.33766 1.94183 9.4315 2.03564 9.46094 2.15728L9.6013 2.73733C9.64618 2.92284 9.7559 3.08687 9.91027 3.19914L10.3922 3.54971C10.4937 3.62348 10.5445 3.74629 10.525 3.87019L10.4323 4.45917C10.4027 4.64746 10.441 4.84076 10.5403 5.00351L10.8513 5.51354C10.9164 5.62027 10.9164 5.75289 10.8513 5.85962Z" fill="#2FAA33"/>
<path d="M8.45216 4.95115C8.40007 4.79077 8.2637 4.6788 8.09623 4.65894L6.67384 4.49028L6.0739 3.18964C6.00326 3.03653 5.85464 2.94141 5.68601 2.94141C5.5174 2.94141 5.36875 3.03653 5.29812 3.18964L4.69818 4.49031L3.27578 4.65897C3.10832 4.67883 2.97191 4.7908 2.91985 4.95118C2.86776 5.11146 2.91229 5.28223 3.03604 5.39669L4.08766 6.3692L3.80852 7.77411C3.77567 7.93952 3.84001 8.10382 3.97645 8.2029C4.05171 8.25757 4.13904 8.28525 4.22693 8.28525C4.29839 8.28525 4.37017 8.26697 4.43611 8.23006L5.68598 7.53048L6.93584 8.23006C7.083 8.31244 7.25911 8.30204 7.39554 8.20293C7.53198 8.10382 7.59631 7.93949 7.56344 7.77411L7.2843 6.36923L8.33591 5.39672C8.45972 5.28226 8.50425 5.11152 8.45216 4.95115ZM6.8662 6.11198C6.80585 6.16779 6.77884 6.25096 6.79484 6.33159L7.08048 7.76922L5.80144 7.05329C5.76558 7.03322 5.72579 7.02317 5.68598 7.02317C5.64616 7.02317 5.60641 7.03319 5.57052 7.05329L4.29148 7.76922L4.57712 6.33159C4.59317 6.25093 4.56613 6.16779 4.50575 6.11198L3.42962 5.11676L4.88527 4.94417C4.96689 4.93451 5.03764 4.88309 5.07209 4.80847L5.68601 3.47748L6.29992 4.80847C6.33438 4.88309 6.4051 4.93451 6.48675 4.94417L7.94234 5.11676L6.8662 6.11198Z" fill="#2FAA33"/>
</svg>
