<svg width="35" height="35" viewBox="0 0 35 35" fill="none" xmlns="http://www.w3.org/2000/svg">
<circle cx="17.5" cy="17.5" r="17.5" fill="#F28E56"/>
<path d="M23.4615 18.5387C23.2553 15.8543 22.0055 14.172 20.9028 12.6875C19.8818 11.3132 19 10.1264 19 8.37564C19 8.23502 18.9212 8.10649 18.7964 8.04204C18.6711 7.97722 18.5206 7.98783 18.4067 8.07059C16.7507 9.25557 15.369 11.2528 14.8864 13.1584C14.5513 14.4851 14.507 15.9765 14.5007 16.9616C12.9714 16.6349 12.625 14.3474 12.6214 14.3225C12.6041 14.2038 12.5316 14.1006 12.4262 14.0442C12.3196 13.9885 12.1943 13.9845 12.0863 14.0379C12.0061 14.0768 10.1179 15.0362 10.0081 18.8668C10.0004 18.9943 10 19.1221 10 19.2499C10 22.9714 13.0282 25.9994 16.75 25.9994C16.7551 25.9998 16.7606 26.0005 16.765 25.9994C16.7665 25.9994 16.7679 25.9994 16.7698 25.9994C20.4824 25.9888 23.5 22.9648 23.5 19.2499C23.5 19.0628 23.4615 18.5387 23.4615 18.5387ZM16.75 25.2495C15.5093 25.2495 14.5 24.1744 14.5 22.8528C14.5 22.8078 14.4996 22.7623 14.5029 22.7067C14.5179 22.1494 14.6238 21.7689 14.7399 21.5158C14.9574 21.9831 15.3463 22.4126 15.978 22.4126C16.1853 22.4126 16.353 22.2449 16.353 22.0377C16.353 21.5038 16.3641 20.8879 16.497 20.332C16.6153 19.8391 16.898 19.3147 17.2561 18.8943C17.4154 19.4399 17.726 19.8815 18.0292 20.3126C18.4632 20.9292 18.9118 21.5668 18.9905 22.654C18.9953 22.7184 19.0001 22.7832 19.0001 22.8528C19 24.1743 17.9907 25.2495 16.75 25.2495Z" fill="white"/>
</svg>
