<svg width="117" height="117" viewBox="0 0 117 117" fill="none" xmlns="http://www.w3.org/2000/svg">
<path d="M116.771 58.3131C116.771 90.5186 90.6631 116.626 58.4576 116.626C26.2522 116.626 0.144531 90.5186 0.144531 58.3131C0.144531 26.1077 26.2522 0 58.4576 0C90.6631 0 116.771 26.1077 116.771 58.3131ZM17.4777 58.3131C17.4777 80.9457 35.825 99.2931 58.4576 99.2931C81.0902 99.2931 99.4376 80.9457 99.4376 58.3131C99.4376 35.6805 81.0902 17.3331 58.4576 17.3331C35.825 17.3331 17.4777 35.6805 17.4777 58.3131Z" fill="white"/>
<path d="M58.4576 0C69.9909 1.37533e-07 81.2651 3.42 90.8547 9.82753C100.444 16.2351 107.918 25.3423 112.332 35.9976C116.746 46.653 117.9 58.3778 115.65 69.6894C113.4 81.0011 107.846 91.3915 99.6912 99.5467C91.536 107.702 81.1456 113.256 69.834 115.506C58.5223 117.756 46.7975 116.601 36.1422 112.187C25.4869 107.774 16.3796 100.3 9.97206 90.7101C3.56453 81.1206 0.144531 69.8464 0.144531 58.3131L17.4777 58.3131C17.4777 66.4182 19.8811 74.3412 24.384 81.0804C28.887 87.8195 35.2872 93.072 42.7753 96.1737C50.2634 99.2753 58.5031 100.087 66.4524 98.5057C74.4018 96.9244 81.7037 93.0215 87.4348 87.2903C93.166 81.5592 97.069 74.2572 98.6502 66.3079C100.231 58.3586 99.4199 50.1189 96.3182 42.6308C93.2165 35.1426 87.964 28.7425 81.2249 24.2395C74.4858 19.7366 66.5627 17.3331 58.4576 17.3331L58.4576 0Z" fill="url(#paint0_angular)"/>
<path d="M33.8555 76.749L32.1493 83.7756L39.176 82.0694L33.8555 76.749Z" fill="#8DDF40"/>
<path d="M50.5025 51V52.74L45.0625 65H42.2825L47.5425 53.2H42.0425V55.58H39.6225V51H50.5025ZM60.8389 57.64C61.5722 57.9733 62.1322 58.4267 62.5189 59C62.9189 59.56 63.1189 60.22 63.1189 60.98C63.1189 61.8333 62.8789 62.58 62.3989 63.22C61.9322 63.86 61.2656 64.3533 60.3989 64.7C59.5322 65.0333 58.5256 65.2 57.3789 65.2C56.2322 65.2 55.2256 65.0333 54.3589 64.7C53.5056 64.3533 52.8456 63.86 52.3789 63.22C51.9122 62.58 51.6789 61.8333 51.6789 60.98C51.6789 60.22 51.8722 59.56 52.2589 59C52.6456 58.4267 53.1989 57.9733 53.9189 57.64C53.3589 57.3333 52.9256 56.9333 52.6189 56.44C52.3256 55.9333 52.1789 55.3533 52.1789 54.7C52.1789 53.9133 52.3922 53.2267 52.8189 52.64C53.2589 52.0533 53.8722 51.6 54.6589 51.28C55.4456 50.96 56.3522 50.8 57.3789 50.8C58.4189 50.8 59.3322 50.96 60.1189 51.28C60.9056 51.6 61.5189 52.0533 61.9589 52.64C62.3989 53.2267 62.6189 53.9133 62.6189 54.7C62.6189 55.3533 62.4656 55.9267 62.1589 56.42C61.8522 56.9133 61.4122 57.32 60.8389 57.64ZM57.3789 52.84C56.5656 52.84 55.9189 53.0133 55.4389 53.36C54.9722 53.7067 54.7389 54.1933 54.7389 54.82C54.7389 55.42 54.9722 55.9 55.4389 56.26C55.9189 56.6067 56.5656 56.78 57.3789 56.78C58.2056 56.78 58.8589 56.6067 59.3389 56.26C59.8189 55.9 60.0589 55.42 60.0589 54.82C60.0589 54.1933 59.8122 53.7067 59.3189 53.36C58.8389 53.0133 58.1922 52.84 57.3789 52.84ZM57.3789 63.16C58.3389 63.16 59.0989 62.96 59.6589 62.56C60.2189 62.16 60.4989 61.6067 60.4989 60.9C60.4989 60.2067 60.2189 59.66 59.6589 59.26C59.0989 58.86 58.3389 58.66 57.3789 58.66C56.4189 58.66 55.6656 58.86 55.1189 59.26C54.5722 59.66 54.2989 60.2067 54.2989 60.9C54.2989 61.6067 54.5722 62.16 55.1189 62.56C55.6656 62.96 56.4189 63.16 57.3789 63.16ZM67.7305 58.54C66.7305 58.54 65.9238 58.1867 65.3105 57.48C64.6971 56.7733 64.3905 55.8467 64.3905 54.7C64.3905 53.5533 64.6971 52.6267 65.3105 51.92C65.9238 51.2133 66.7305 50.86 67.7305 50.86C68.7305 50.86 69.5371 51.2133 70.1505 51.92C70.7771 52.6133 71.0905 53.54 71.0905 54.7C71.0905 55.86 70.7771 56.7933 70.1505 57.5C69.5371 58.1933 68.7305 58.54 67.7305 58.54ZM76.1305 51H78.0905L68.5305 65H66.5705L76.1305 51ZM67.7305 57.14C68.2771 57.14 68.6971 56.9267 68.9905 56.5C69.2971 56.0733 69.4505 55.4733 69.4505 54.7C69.4505 53.9267 69.2971 53.3267 68.9905 52.9C68.6971 52.4733 68.2771 52.26 67.7305 52.26C67.2105 52.26 66.7905 52.48 66.4705 52.92C66.1638 53.3467 66.0105 53.94 66.0105 54.7C66.0105 55.46 66.1638 56.06 66.4705 56.5C66.7905 56.9267 67.2105 57.14 67.7305 57.14ZM76.9105 65.14C75.9105 65.14 75.1038 64.7867 74.4905 64.08C73.8771 63.3733 73.5705 62.4467 73.5705 61.3C73.5705 60.1533 73.8771 59.2267 74.4905 58.52C75.1038 57.8133 75.9105 57.46 76.9105 57.46C77.9105 57.46 78.7171 57.8133 79.3305 58.52C79.9571 59.2267 80.2705 60.1533 80.2705 61.3C80.2705 62.4467 79.9571 63.3733 79.3305 64.08C78.7171 64.7867 77.9105 65.14 76.9105 65.14ZM76.9105 63.74C77.4438 63.74 77.8638 63.5267 78.1705 63.1C78.4771 62.66 78.6305 62.06 78.6305 61.3C78.6305 60.54 78.4771 59.9467 78.1705 59.52C77.8638 59.08 77.4438 58.86 76.9105 58.86C76.3771 58.86 75.9571 59.0733 75.6505 59.5C75.3438 59.9267 75.1905 60.5267 75.1905 61.3C75.1905 62.0733 75.3438 62.6733 75.6505 63.1C75.9571 63.5267 76.3771 63.74 76.9105 63.74Z" fill="#242021"/>
<defs>
<radialGradient id="paint0_angular" cx="0" cy="0" r="1" gradientUnits="userSpaceOnUse" gradientTransform="translate(58.4576 58.3131) rotate(89.6304) scale(58.3143)">
<stop offset="0.165196" stop-color="#0ACE2A"/>
<stop offset="0.567708" stop-color="#ED2700"/>
<stop offset="0.885417" stop-color="#FF9900"/>
</radialGradient>
</defs>
</svg>
