<svg width="108" height="17" viewBox="0 0 108 17" fill="none" xmlns="http://www.w3.org/2000/svg">
<rect y="2" width="14" height="14" rx="7" fill="url(#paint0_linear)"/>
<rect x="9" y="2" width="14" height="14" rx="7" fill="url(#paint1_linear)"/>
<path d="M28.0865 2H29.1065V15.08H37.1665V16H28.0865V2ZM48.1099 11.02H39.1299C39.1566 11.8333 39.3633 12.56 39.7499 13.2C40.1366 13.8267 40.6566 14.3133 41.3099 14.66C41.9766 15.0067 42.7233 15.18 43.5499 15.18C44.2299 15.18 44.8566 15.06 45.4299 14.82C46.0166 14.5667 46.5033 14.2 46.8899 13.72L47.4699 14.38C47.0166 14.9267 46.4433 15.3467 45.7499 15.64C45.0699 15.9333 44.3299 16.08 43.5299 16.08C42.4899 16.08 41.5633 15.8533 40.7499 15.4C39.9366 14.9467 39.2966 14.32 38.8299 13.52C38.3766 12.72 38.1499 11.8067 38.1499 10.78C38.1499 9.76667 38.3633 8.86 38.7899 8.06C39.2299 7.24667 39.8299 6.61333 40.5899 6.16C41.3499 5.70667 42.2033 5.48 43.1499 5.48C44.0966 5.48 44.9433 5.70667 45.6899 6.16C46.4499 6.6 47.0433 7.22 47.4699 8.02C47.9099 8.82 48.1299 9.72667 48.1299 10.74L48.1099 11.02ZM43.1499 6.36C42.4166 6.36 41.7566 6.52667 41.1699 6.86C40.5833 7.18 40.1099 7.64 39.7499 8.24C39.4033 8.82667 39.2033 9.49333 39.1499 10.24H47.1499C47.1099 9.49333 46.9099 8.82667 46.5499 8.24C46.1899 7.65333 45.7166 7.19333 45.1299 6.86C44.5433 6.52667 43.8833 6.36 43.1499 6.36ZM56.3235 5.48C57.6302 5.48 58.6635 5.86 59.4235 6.62C60.1835 7.38 60.5635 8.47333 60.5635 9.9V16H59.5635V9.98C59.5635 8.80667 59.2635 7.91333 58.6635 7.3C58.0768 6.68667 57.2502 6.38 56.1835 6.38C54.9568 6.38 53.9902 6.74667 53.2835 7.48C52.5768 8.21333 52.2235 9.2 52.2235 10.44V16H51.2235V5.56H52.1835V7.82C52.5435 7.08667 53.0768 6.51333 53.7835 6.1C54.5035 5.68667 55.3502 5.48 56.3235 5.48ZM73.9801 1.16V16H73.0001V13.54C72.5867 14.3533 72.0067 14.98 71.2601 15.42C70.5134 15.86 69.6667 16.08 68.7201 16.08C67.7467 16.08 66.8667 15.8533 66.0801 15.4C65.2934 14.9467 64.6734 14.32 64.2201 13.52C63.7801 12.72 63.5601 11.8067 63.5601 10.78C63.5601 9.75333 63.7801 8.84 64.2201 8.04C64.6734 7.22667 65.2934 6.6 66.0801 6.16C66.8667 5.70667 67.7467 5.48 68.7201 5.48C69.6534 5.48 70.4867 5.7 71.2201 6.14C71.9667 6.58 72.5534 7.19333 72.9801 7.98V1.16H73.9801ZM68.7801 15.18C69.5801 15.18 70.2934 14.9933 70.9201 14.62C71.5601 14.2467 72.0601 13.7267 72.4201 13.06C72.7934 12.3933 72.9801 11.6333 72.9801 10.78C72.9801 9.92667 72.7934 9.16667 72.4201 8.5C72.0601 7.83333 71.5601 7.31333 70.9201 6.94C70.2934 6.56667 69.5801 6.38 68.7801 6.38C67.9801 6.38 67.2601 6.56667 66.6201 6.94C65.9934 7.31333 65.4934 7.83333 65.1201 8.5C64.7601 9.16667 64.5801 9.92667 64.5801 10.78C64.5801 11.6333 64.7601 12.3933 65.1201 13.06C65.4934 13.7267 65.9934 14.2467 66.6201 14.62C67.2601 14.9933 67.9801 15.18 68.7801 15.18ZM87.0162 11.02H78.0362C78.0628 11.8333 78.2695 12.56 78.6562 13.2C79.0428 13.8267 79.5628 14.3133 80.2162 14.66C80.8828 15.0067 81.6295 15.18 82.4562 15.18C83.1362 15.18 83.7628 15.06 84.3362 14.82C84.9228 14.5667 85.4095 14.2 85.7962 13.72L86.3762 14.38C85.9228 14.9267 85.3495 15.3467 84.6562 15.64C83.9762 15.9333 83.2362 16.08 82.4362 16.08C81.3962 16.08 80.4695 15.8533 79.6562 15.4C78.8428 14.9467 78.2028 14.32 77.7362 13.52C77.2828 12.72 77.0562 11.8067 77.0562 10.78C77.0562 9.76667 77.2695 8.86 77.6962 8.06C78.1362 7.24667 78.7362 6.61333 79.4962 6.16C80.2562 5.70667 81.1095 5.48 82.0562 5.48C83.0028 5.48 83.8495 5.70667 84.5962 6.16C85.3562 6.6 85.9495 7.22 86.3762 8.02C86.8162 8.82 87.0362 9.72667 87.0362 10.74L87.0162 11.02ZM82.0562 6.36C81.3228 6.36 80.6628 6.52667 80.0762 6.86C79.4895 7.18 79.0162 7.64 78.6562 8.24C78.3095 8.82667 78.1095 9.49333 78.0562 10.24H86.0562C86.0162 9.49333 85.8162 8.82667 85.4562 8.24C85.0962 7.65333 84.6228 7.19333 84.0362 6.86C83.4495 6.52667 82.7895 6.36 82.0562 6.36ZM91.0898 7.84C91.4098 7.08 91.9098 6.5 92.5898 6.1C93.2698 5.68667 94.0964 5.48 95.0698 5.48V6.46L94.8298 6.44C93.6698 6.44 92.7631 6.80667 92.1098 7.54C91.4564 8.26 91.1298 9.26667 91.1298 10.56V16H90.1298V5.56H91.0898V7.84ZM100.563 16.08C99.7227 16.08 98.9227 15.9533 98.1627 15.7C97.4027 15.4467 96.8094 15.1267 96.3827 14.74L96.8427 13.94C97.2694 14.3 97.8161 14.6 98.4827 14.84C99.1627 15.08 99.8694 15.2 100.603 15.2C101.656 15.2 102.429 15.0267 102.923 14.68C103.429 14.3333 103.683 13.8533 103.683 13.24C103.683 12.8 103.543 12.4533 103.263 12.2C102.996 11.9467 102.663 11.76 102.263 11.64C101.863 11.52 101.309 11.3933 100.603 11.26C99.7761 11.1133 99.1094 10.9533 98.6027 10.78C98.0961 10.6067 97.6627 10.3267 97.3027 9.94C96.9427 9.55333 96.7627 9.02 96.7627 8.34C96.7627 7.51333 97.1027 6.83333 97.7827 6.3C98.4761 5.75333 99.4561 5.48 100.723 5.48C101.389 5.48 102.049 5.57333 102.703 5.76C103.356 5.94667 103.889 6.19333 104.303 6.5L103.843 7.3C103.416 6.99333 102.929 6.76 102.383 6.6C101.836 6.44 101.276 6.36 100.703 6.36C99.7294 6.36 98.9961 6.54 98.5027 6.9C98.0094 7.26 97.7627 7.73333 97.7627 8.32C97.7627 8.78667 97.9027 9.15333 98.1827 9.42C98.4627 9.67333 98.8027 9.86667 99.2027 10C99.6161 10.12 100.189 10.2533 100.923 10.4C101.736 10.5467 102.389 10.7067 102.883 10.88C103.389 11.04 103.816 11.3067 104.163 11.68C104.509 12.0533 104.683 12.5667 104.683 13.22C104.683 14.0867 104.323 14.78 103.603 15.3C102.883 15.82 101.869 16.08 100.563 16.08Z" fill="#242021"/>
<defs>
<linearGradient id="paint0_linear" x1="13.5" y1="9.00001" x2="3" y2="9.00001" gradientUnits="userSpaceOnUse">
<stop stop-color="#242021" stop-opacity="0.48"/>
<stop offset="1" stop-color="#A8B2CA"/>
</linearGradient>
<linearGradient id="paint1_linear" x1="23" y1="9.00001" x2="12.9375" y2="9.00001" gradientUnits="userSpaceOnUse">
<stop stop-color="#F0CF25"/>
<stop offset="1" stop-color="#FFDD2D"/>
</linearGradient>
</defs>
</svg>
