<svg width="50" height="50" viewBox="0 0 50 50" fill="none" xmlns="http://www.w3.org/2000/svg">
<path d="M40.4311 14.5264C40.9704 14.5264 41.4077 14.0892 41.4077 13.5498V2.92969C41.4077 1.31426 40.0934 0 38.4779 0H2.92979C1.3143 0 0 1.31426 0 2.92969V47.0703C0 48.6857 1.3143 50 2.92979 50H38.4779C40.0934 50 41.4077 48.6857 41.4077 47.0703V39.8758C41.4077 39.3364 40.9704 38.8992 40.4311 38.8992C39.8918 38.8992 39.4545 39.3364 39.4545 39.8758V47.0703C39.4545 47.6088 39.0164 48.0469 38.4779 48.0469H2.92979C2.3913 48.0469 1.95319 47.6088 1.95319 47.0703V2.92969C1.95319 2.39121 2.3913 1.95312 2.92979 1.95312H38.4779C39.0164 1.95312 39.4545 2.39121 39.4545 2.92969V13.5498C39.4545 14.0892 39.8918 14.5264 40.4311 14.5264Z" fill="#365BA4"/>
<path d="M20.7034 5.27344C15.7493 5.27344 11.7188 9.30381 11.7188 14.2578C11.7188 16.8278 12.8037 19.1489 14.5394 20.788C14.5719 20.8228 14.6064 20.8557 14.6442 20.8856C16.243 22.3484 18.3707 23.2421 20.7033 23.2421C23.0359 23.2421 25.1637 22.3483 26.7624 20.8856C26.8002 20.8557 26.8348 20.8227 26.8673 20.788C28.6031 19.1489 29.6881 16.8278 29.6881 14.2578C29.6881 9.30381 25.6576 5.27344 20.7034 5.27344ZM20.7034 21.2891C19.1088 21.2891 17.637 20.7547 16.4561 19.8566C17.3145 18.3347 18.9162 17.3828 20.7034 17.3828C22.4907 17.3828 24.0924 18.3347 24.9508 19.8566C23.7698 20.7547 22.2981 21.2891 20.7034 21.2891ZM19.1409 13.8672V13.2324C19.1409 12.3709 19.8419 11.6699 20.7034 11.6699C21.565 11.6699 22.266 12.3709 22.266 13.2324V13.8672C22.266 14.7287 21.565 15.4297 20.7034 15.4297C19.8419 15.4297 19.1409 14.7287 19.1409 13.8672ZM26.3618 18.4261C25.6416 17.3579 24.6434 16.5271 23.4845 16.0143C23.9445 15.4198 24.2192 14.6752 24.2192 13.8672V13.2324C24.2192 11.2938 22.6421 9.7168 20.7034 9.7168C18.7648 9.7168 17.1877 11.2938 17.1877 13.2324V13.8672C17.1877 14.6752 17.4624 15.4198 17.9224 16.0143C16.7635 16.5271 15.7653 17.3579 15.045 18.4261C14.1828 17.2588 13.6719 15.8171 13.6719 14.2578C13.6719 10.3808 16.8263 7.22656 20.7034 7.22656C24.5806 7.22656 27.7349 10.3808 27.7349 14.2578C27.7349 15.8171 27.2241 17.2588 26.3618 18.4261Z" fill="#365BA4"/>
<path d="M25.9768 42.7734H20.7032C20.1639 42.7734 19.7266 43.2106 19.7266 43.75C19.7266 44.2894 20.1639 44.7266 20.7032 44.7266H25.9768C26.5161 44.7266 26.9534 44.2894 26.9534 43.75C26.9534 43.2106 26.5161 42.7734 25.9768 42.7734Z" fill="#365BA4"/>
<path d="M25.9771 37.3047H12.1094C11.5701 37.3047 11.1328 37.7419 11.1328 38.2812C11.1328 38.8206 11.5701 39.2578 12.1094 39.2578H25.9771C26.5164 39.2578 26.9537 38.8206 26.9537 38.2812C26.9537 37.7419 26.5164 37.3047 25.9771 37.3047Z" fill="#365BA4"/>
<path d="M25.9771 31.8359H12.1094C11.5701 31.8359 11.1328 32.2731 11.1328 32.8125C11.1328 33.3519 11.5701 33.7891 12.1094 33.7891H25.9771C26.5164 33.7891 26.9537 33.3519 26.9537 32.8125C26.9537 32.2731 26.5164 31.8359 25.9771 31.8359Z" fill="#365BA4"/>
<path d="M8.62887 26.6533C8.44732 26.4717 8.19536 26.3672 7.93753 26.3672C7.68059 26.3672 7.42863 26.4717 7.24708 26.6533C7.06543 26.835 6.96094 27.0869 6.96094 27.3438C6.96094 27.6006 7.06534 27.8525 7.24708 28.0342C7.4297 28.2158 7.68059 28.3203 7.93753 28.3203C8.19536 28.3203 8.44634 28.2158 8.62887 28.0342C8.81051 27.8525 8.91511 27.6006 8.91511 27.3438C8.91511 27.0869 8.81061 26.835 8.62887 26.6533Z" fill="#365BA4"/>
<path d="M8.62887 32.1221C8.44634 31.9404 8.19536 31.8359 7.93753 31.8359C7.68059 31.8359 7.4297 31.9404 7.24708 32.1221C7.06543 32.3037 6.96094 32.5557 6.96094 32.8125C6.96094 33.0693 7.06534 33.3213 7.24708 33.5029C7.4297 33.6846 7.68059 33.7891 7.93753 33.7891C8.19536 33.7891 8.44634 33.6846 8.62887 33.5029C8.81051 33.3213 8.91511 33.0693 8.91511 32.8125C8.91511 32.5557 8.81061 32.3037 8.62887 32.1221Z" fill="#365BA4"/>
<path d="M8.62887 37.5908C8.44634 37.4092 8.19536 37.3047 7.93753 37.3047C7.68059 37.3047 7.4297 37.4092 7.24708 37.5908C7.06543 37.7725 6.96094 38.0244 6.96094 38.2812C6.96094 38.5381 7.06534 38.79 7.24708 38.9717C7.42863 39.1533 7.68059 39.2578 7.93753 39.2578C8.19536 39.2578 8.44732 39.1533 8.62887 38.9717C8.81051 38.79 8.91511 38.5381 8.91511 38.2812C8.91511 38.0244 8.81061 37.7725 8.62887 37.5908Z" fill="#365BA4"/>
<path d="M25.9771 26.3672H12.1094C11.5701 26.3672 11.1328 26.8044 11.1328 27.3438C11.1328 27.8831 11.5701 28.3203 12.1094 28.3203H25.9771C26.5164 28.3203 26.9537 27.8831 26.9537 27.3438C26.9537 26.8044 26.5164 26.3672 25.9771 26.3672Z" fill="#365BA4"/>
<path d="M47.9502 12.7265C47.0014 12.1788 45.8961 12.0333 44.8377 12.3168C43.7794 12.6004 42.8948 13.2791 42.3471 14.2278L30.0574 35.5133C29.9901 35.63 29.9476 35.7594 29.9326 35.8932L29.0676 43.6417C29.0246 44.0272 29.2138 44.4017 29.5498 44.5958C29.7015 44.6833 29.8699 44.7266 30.038 44.7266C30.2423 44.7266 30.4458 44.6627 30.6172 44.5364L36.8952 39.913C37.0037 39.8331 37.0945 39.7316 37.1618 39.6149L49.4514 18.3295C50.5823 16.3709 49.9088 13.8574 47.9502 12.7265ZM31.2563 41.64L31.7081 37.5939L34.5345 39.2258L31.2563 41.64ZM35.9586 37.7926L32.2373 35.6441L42.0995 18.5631L45.8208 20.7115L35.9586 37.7926ZM47.7599 17.3528L46.7973 19.0201L43.076 16.8717L44.0386 15.2044C44.3255 14.7074 44.7888 14.3519 45.3431 14.2034C45.8976 14.0548 46.4766 14.1311 46.9735 14.418C47.4705 14.705 47.8259 15.1682 47.9745 15.7225C48.123 16.2768 48.0468 16.8558 47.7599 17.3528Z" fill="#365BA4"/>
</svg>
